<svg viewBox="0 0 64 64" xmlns="http://www.w3.org/2000/svg"><path d="M5.89 53.31h52.22A1.89 1.89 0 0 1 60 55.19v.16a1.88 1.88 0 0 1-1.88 1.88H5.89A1.89 1.89 0 0 1 4 55.36v-.16a1.89 1.89 0 0 1 1.89-1.89Z" fill="#94a1b2" class="fill-94a1b2"></path><path d="M23.78 40.15h-6.34a1.85 1.85 0 0 0-1.33.56 1.88 1.88 0 0 0-.55 1.29v11.31h8.22Z" fill-rule="evenodd" fill="#4f9ff6" class="fill-f64f7d"></path><path d="M32 36.15h-6.34a1.85 1.85 0 0 0-1.33.56 1.88 1.88 0 0 0-.55 1.29v15.31H32Z" fill="#f8e157" fill-rule="evenodd" class="fill-f8e157"></path><path d="M40.22 32.15h-6.33A1.89 1.89 0 0 0 32 34v19.31h8.22Z" fill-rule="evenodd" fill="#4f9ff6" class="fill-f64f7d"></path><path d="M48.44 28.15h-6.33A1.89 1.89 0 0 0 40.22 30v23.31h8.22ZM15.56 44.15H9.22A1.91 1.91 0 0 0 7.33 46v7.27h8.23Z" fill="#f8e157" fill-rule="evenodd" class="fill-f8e157"></path><path d="M56.67 26a1.91 1.91 0 0 0-1.89-1.89h-4.45A1.89 1.89 0 0 0 48.44 26v27.31h8.23Z" fill-rule="evenodd" fill="#4f9ff6" class="fill-f64f7d"></path><path d="M42.71 14.58a1.65 1.65 0 0 0-1-.75l-7.28-1.95a1.66 1.66 0 1 0-.86 3.21l3.3.89L6.49 33.52a1.73 1.73 0 1 0 1.73 3L38.61 19l-.89 3.3a1.67 1.67 0 1 0 3.22.86l2-7.27a1.71 1.71 0 0 0-.23-1.31Z" fill="#4f9ff6" class="fill-4f9ff6"></path><path d="M60 55.19a1.88 1.88 0 0 0-1.89-1.88h-5.56v3.93h5.56A1.88 1.88 0 0 0 60 55.36Z" fill="#5e697b" fill-rule="evenodd" class="fill-5e697b"></path><path d="M19.67 40.15h4.11V53.3h-4.11zM36.11 32.15h4.11V53.3h-4.11z" fill="#4f9ff6" class="fill-e43b74"></path><path d="M56.67 26a1.91 1.91 0 0 0-1.89-1.89h-2.23v29.2h4.12Z" fill="#4f9ff6" fill-rule="evenodd" class="fill-e43b74"></path><path d="M27.89 36.15H32V53.3h-4.11zM44.33 28.15h4.11V53.3h-4.11zM11.45 44.15h4.11v9.15h-4.11z" fill="#f4b948" class="fill-f4b948"></path><path d="M51.14 8.13v-.37a1 1 0 1 1 2 0v.37a3 3 0 0 1 1 .65 1 1 0 0 1-1.42 1.42.82.82 0 0 0-.59-.25.84.84 0 0 0-.83.84.83.83 0 0 0 .83.83 2.84 2.84 0 0 1 1 5.49v.37a1 1 0 1 1-2 0v-.37a2.93 2.93 0 0 1-1-.65A1 1 0 0 1 51.56 15a.75.75 0 0 0 .51.24h.15a.83.83 0 0 0-.08-1.66 2.84 2.84 0 0 1-1-5.49Z" fill="#f8e157" fill-rule="evenodd" class="fill-f8e157"></path></svg>