<?xml version="1.0" ?><svg xmlns="http://www.w3.org/2000/svg" xmlns:xlink="http://www.w3.org/1999/xlink" version="1.1" viewBox="0 0 512 512" style="enable-background:new 0 0 512 512;" xml:space="preserve"><g id="_x34_6_x2C__Feedback_x2C__testimonials_x2C__client_x2C__testimonial_x2C__review_x2C__customer"><g><path id="XMLID_676_" style="fill:#CDDCF9;" d="M473.5,8.5h-435c-16.57,0-30,13.43-30,30V166c0,16.57,13.43,30,30,30h336.93    l33.97,45l33.96-45h30.14c16.57,0,30-13.43,30-30V38.5C503.5,21.93,490.07,8.5,473.5,8.5z"/><path id="XMLID_677_" style="fill:#FFFFFF;" d="M350.63,390.49l-42.62-4.06v0.01H203.72v-0.01l-42.63,4.06    c-21.91,2.09-38.64,20.49-38.64,42.5v70.51c12.508,0,255.647,0,266.83,0v-70.51C389.28,410.98,372.54,392.58,350.63,390.49z"/><path id="XMLID_678_" style="fill:#FFFFFF;" d="M277.21,383.5v-32.75h-42.69v32.75l-30.8,2.93v0.01    c5.91,23.29,27.01,40.51,52.14,40.51s46.24-17.22,52.15-40.51v-0.01L277.21,383.5z"/><path id="XMLID_679_" style="fill:#FFFFFF;" d="M272.167,252.667L197.16,290.04v16.01c0,32.376,26.243,58.7,58.7,58.7    c32.542,0,58.71-26.404,58.71-58.7v-16.01L272.167,252.667z"/><path id="XMLID_680_" style="fill:#FFFFFF;" d="M314.57,284.7v5.34c-16.174-2.138-30.46-11.074-37.36-26.68    c-20.978,22.066-50.245,29.629-80.05,26.68v-5.34c0-32.42,26.28-58.7,58.7-58.7C288.279,226,314.57,252.279,314.57,284.7z"/><polygon id="XMLID_681_" style="fill:#FFFFFF;" points="164.15,88.97 134.58,117.8 141.56,158.5 105.01,139.28 68.45,158.5     75.44,117.8 45.86,88.97 86.73,83.03 105.01,46 123.28,83.03   "/><polygon id="XMLID_682_" style="fill:#FFFFFF;" points="315.01,88.97 285.44,117.8 292.42,158.5 255.86,139.28 219.31,158.5     226.29,117.8 196.72,88.97 237.59,83.03 255.86,46 274.14,83.03   "/><polygon id="XMLID_683_" style="fill:#FFFFFF;" points="465.86,88.97 436.29,117.8 443.27,158.5 406.72,139.28 370.17,158.5     377.15,117.8 347.57,88.97 388.44,83.03 406.72,46 425,83.03   "/><g><path style="fill:#487FE9;" d="M473.5,1h-435C17.822,1,1,17.822,1,38.5V166c0,20.678,16.822,37.5,37.5,37.5h333.192     l31.717,42.019c2.996,3.967,8.969,3.977,11.973,0l31.717-42.019H473.5c20.678,0,37.5-16.822,37.5-37.5V38.5     C511,17.822,494.178,1,473.5,1z M496,166c0,12.406-10.094,22.5-22.5,22.5h-30.137c-2.353,0-4.568,1.104-5.986,2.981     l-27.982,37.069l-27.981-37.069c-1.418-1.878-3.634-2.981-5.986-2.981H38.5C26.094,188.5,16,178.406,16,166V38.5     C16,26.094,26.094,16,38.5,16h435c12.406,0,22.5,10.094,22.5,22.5V166z"/><path style="fill:#487FE9;" d="M351.343,383.027l-66.634-6.347v-11.056c22.091-10.739,37.356-33.407,37.356-59.577v-21.346     c0-36.504-29.698-66.202-66.202-66.202s-66.202,29.698-66.202,66.202c0,15.503,0,6.753,0,21.346     c0,26.169,15.265,48.837,37.357,59.577v11.056l-66.634,6.347c-25.901,2.466-45.434,23.945-45.434,49.965V503.5     c0,4.143,3.357,7.5,7.5,7.5h266.826c4.143,0,7.5-3.357,7.5-7.5v-70.508C396.776,406.973,377.244,385.493,351.343,383.027z      M255.863,233.5c26.85,0,48.923,20.777,51.023,47.097c-10.249-3.43-18.361-10.19-22.818-20.274     c-2.147-4.858-8.589-6.04-12.299-2.131c-17.574,18.511-41.562,25.899-67.066,24.858C205.58,255.58,228.184,233.5,255.863,233.5z      M204.661,306.048v-7.999c26.011,0.948,50.927-5.845,70.761-22.691c7.588,10.754,18.755,17.73,31.643,20.878v9.812     c0,28.233-22.969,51.202-51.202,51.202S204.661,334.281,204.661,306.048z M235.229,390.966c3.85-0.366,6.789-3.6,6.789-7.466     v-12.718c8.866,1.894,18.242,2.019,27.691,0V383.5c0,3.866,2.939,7.1,6.789,7.466l21.219,2.021     c-7.527,15.933-23.672,26.468-41.853,26.468s-34.326-10.536-41.853-26.468L235.229,390.966z M381.776,496h-27.801v-49.133     c0-4.143-3.357-7.5-7.5-7.5c-4.143,0-7.5,3.357-7.5,7.5V496H172.751v-49.133c0-4.143-3.357-7.5-7.5-7.5     c-4.143,0-7.5,3.357-7.5,7.5V496H129.95v-63.008c0-18.243,13.694-33.304,31.855-35.033l36.578-3.484     c8.804,23.83,31.584,39.98,57.479,39.98s48.675-16.15,57.479-39.98l36.578,3.484c18.161,1.729,31.855,16.79,31.855,35.033V496z"/><path style="fill:#487FE9;" d="M466.942,81.55l-36.967-5.372l-16.531-33.497c-1.264-2.56-3.871-4.181-6.725-4.181     c-2.855,0-5.462,1.621-6.726,4.181l-16.532,33.497l-36.966,5.372c-2.824,0.41-5.172,2.39-6.054,5.104     c-0.882,2.715-0.147,5.695,1.897,7.688l26.749,26.072l-6.314,36.817c-0.483,2.813,0.674,5.657,2.983,7.335     c2.31,1.678,5.369,1.901,7.898,0.571l33.064-17.383l33.063,17.383c2.536,1.333,5.598,1.1,7.898-0.571     c2.31-1.678,3.467-4.521,2.983-7.335l-6.314-36.817l26.749-26.072c2.044-1.993,2.779-4.974,1.897-7.688     C472.114,83.939,469.767,81.96,466.942,81.55z M431.056,112.426c-1.768,1.724-2.574,4.206-2.156,6.639l4.412,25.725     l-23.102-12.146c-2.186-1.148-4.795-1.148-6.981,0l-23.102,12.146l4.412-25.725c0.418-2.433-0.389-4.915-2.156-6.639     l-18.69-18.218l25.829-3.754c2.442-0.354,4.554-1.889,5.646-4.103l11.552-23.405l11.551,23.405     c1.093,2.214,3.204,3.748,5.646,4.103l25.83,3.754L431.056,112.426z"/><path style="fill:#487FE9;" d="M316.087,81.55l-36.967-5.372l-16.531-33.497c-1.264-2.56-3.871-4.181-6.726-4.181     c-2.854,0-5.462,1.621-6.726,4.181l-16.531,33.497L195.64,81.55c-2.824,0.41-5.172,2.39-6.054,5.104     c-0.882,2.715-0.146,5.695,1.897,7.688l26.749,26.072l-6.314,36.817c-0.483,2.813,0.674,5.657,2.983,7.335     c2.31,1.678,5.369,1.901,7.898,0.571l33.063-17.383l33.063,17.383c2.536,1.333,5.598,1.1,7.898-0.571     c2.31-1.678,3.467-4.521,2.983-7.335l-6.314-36.817l26.749-26.072c2.044-1.993,2.779-4.974,1.897-7.688     C321.259,83.939,318.911,81.96,316.087,81.55z M280.2,112.426c-1.768,1.724-2.574,4.206-2.156,6.639l4.412,25.725l-23.103-12.146     c-2.185-1.148-4.795-1.148-6.98,0L229.27,144.79l4.412-25.725c0.418-2.433-0.389-4.915-2.156-6.639l-18.691-18.218l25.83-3.754     c2.442-0.354,4.554-1.889,5.646-4.103l11.551-23.405l11.551,23.405c1.093,2.214,3.204,3.748,5.646,4.103l25.83,3.754     L280.2,112.426z"/><path style="fill:#487FE9;" d="M165.231,81.55l-36.966-5.372l-16.532-33.497c-1.264-2.56-3.871-4.181-6.726-4.181     s-5.462,1.621-6.726,4.181L81.751,76.178L44.784,81.55c-2.824,0.41-5.172,2.39-6.054,5.104c-0.882,2.715-0.146,5.695,1.897,7.688     l26.749,26.072l-6.315,36.817c-0.483,2.813,0.674,5.657,2.983,7.335c2.31,1.678,5.369,1.901,7.898,0.571l33.063-17.383     l33.063,17.383c2.536,1.333,5.598,1.1,7.898-0.571c2.31-1.678,3.467-4.521,2.983-7.335l-6.314-36.817l26.749-26.072     c2.044-1.993,2.779-4.974,1.897-7.688C170.403,83.939,168.056,81.96,165.231,81.55z M129.345,112.426     c-1.768,1.724-2.574,4.206-2.156,6.639l4.412,25.725l-23.103-12.146c-2.186-1.148-4.795-1.148-6.98,0L78.415,144.79l4.412-25.725     c0.418-2.433-0.389-4.915-2.156-6.639L61.98,94.208l25.83-3.754c2.442-0.354,4.554-1.889,5.647-4.103l11.551-23.405     l11.552,23.405c1.093,2.214,3.204,3.748,5.646,4.103l25.829,3.754L129.345,112.426z"/></g></g></g><g id="Layer_1"/></svg>