<?xml version="1.0" ?><svg height="64" id="svg8" version="1.1" viewBox="0 0 16.933333 16.933333" width="64" xmlns="http://www.w3.org/2000/svg" xmlns:cc="http://creativecommons.org/ns#" xmlns:dc="http://purl.org/dc/elements/1.1/" xmlns:inkscape="http://www.inkscape.org/namespaces/inkscape" xmlns:rdf="http://www.w3.org/1999/02/22-rdf-syntax-ns#" xmlns:sodipodi="http://sodipodi.sourceforge.net/DTD/sodipodi-0.dtd" xmlns:svg="http://www.w3.org/2000/svg"><defs id="defs2"/><g id="layer2"><path d="m 1.3229213,14.02292 h 4.2333275 c 0.2931596,0 0.5291688,0.236009 0.5291688,0.529168 v 1.05833 c 0,0.293159 -0.2360092,0.529169 -0.5291688,0.529169 H 1.3229213 c -0.2931595,0 -0.52916875,-0.23601 -0.52916875,-0.529169 v -1.05833 c 0,-0.293159 0.23600925,-0.529168 0.52916875,-0.529168 z" id="rect7095" style="fill:#a8c5f7;fill-opacity:1;stroke:none;stroke-width:0.529167;stroke-linecap:round;stroke-linejoin:round;stroke-miterlimit:4;stroke-dasharray:none"/><path d="m 5.55625,14.022921 v 1.058333 c 0,0.293157 -0.23601,0.529167 -0.52916,0.529167 H 0.79375 c 0,0.293157 0.23601,0.529167 0.52917,0.529167 h 4.23333 c 0.29316,0 0.52917,-0.23601 0.52917,-0.529167 v -1.058334 c 0,-0.293157 -0.23601,-0.529166 -0.52917,-0.529166 z" id="path7097" style="fill:#91b8fb;fill-opacity:1;stroke:none;stroke-width:0.529167;stroke-linecap:round;stroke-linejoin:round;stroke-miterlimit:4;stroke-dasharray:none"/><path d="m 1.3229213,11.906253 h 4.2333275 c 0.2931596,0 0.5291688,0.236009 0.5291688,0.529169 v 1.058329 c 0,0.29316 -0.2360092,0.529169 -0.5291688,0.529169 H 1.3229213 c -0.2931595,0 -0.52916875,-0.236009 -0.52916875,-0.529169 v -1.058329 c 0,-0.29316 0.23600925,-0.529169 0.52916875,-0.529169 z" id="rect7099" style="fill:#a8c5f7;fill-opacity:1;stroke:none;stroke-width:0.529167;stroke-linecap:round;stroke-linejoin:round;stroke-miterlimit:4;stroke-dasharray:none"/><path d="m 5.55625,11.906254 v 1.058333 c 0,0.293157 -0.23601,0.529167 -0.52916,0.529167 H 0.79375 c 0,0.293157 0.23601,0.529167 0.52917,0.529167 h 4.23333 c 0.29316,0 0.52917,-0.23601 0.52917,-0.529167 V 12.43542 c 0,-0.293157 -0.23601,-0.529166 -0.52917,-0.529166 z" id="path7101" style="fill:#91b8fb;fill-opacity:1;stroke:none;stroke-width:0.529167;stroke-linecap:round;stroke-linejoin:round;stroke-miterlimit:4;stroke-dasharray:none"/><path d="m 11.377083,14.02292 h 4.233327 c 0.29316,0 0.529169,0.236009 0.529169,0.529168 v 1.05833 c 0,0.293159 -0.236009,0.529169 -0.529169,0.529169 h -4.233327 c -0.29316,0 -0.529169,-0.23601 -0.529169,-0.529169 v -1.05833 c 0,-0.293159 0.236009,-0.529168 0.529169,-0.529168 z" id="rect7091" style="fill:#a8c5f7;fill-opacity:1;stroke:none;stroke-width:0.529167;stroke-linecap:round;stroke-linejoin:round;stroke-miterlimit:4;stroke-dasharray:none"/><path d="m 15.61041,14.022921 v 1.058333 c 0,0.293157 -0.23601,0.529167 -0.52916,0.529167 h -4.23334 c 0,0.293157 0.23601,0.529167 0.52917,0.529167 h 4.23333 c 0.29316,0 0.52917,-0.23601 0.52917,-0.529167 v -1.058334 c 0,-0.293157 -0.23601,-0.529166 -0.52917,-0.529166 z" id="path7093" style="fill:#91b8fb;fill-opacity:1;stroke:none;stroke-width:0.529167;stroke-linecap:round;stroke-linejoin:round;stroke-miterlimit:4;stroke-dasharray:none"/><path d="m 11.377083,11.906253 h 4.233327 c 0.29316,0 0.529169,0.236009 0.529169,0.529169 v 1.058329 c 0,0.29316 -0.236009,0.529169 -0.529169,0.529169 h -4.233327 c -0.29316,0 -0.529169,-0.236009 -0.529169,-0.529169 v -1.058329 c 0,-0.29316 0.236009,-0.529169 0.529169,-0.529169 z" id="rect7087" style="fill:#a8c5f7;fill-opacity:1;stroke:none;stroke-width:0.529167;stroke-linecap:round;stroke-linejoin:round;stroke-miterlimit:4;stroke-dasharray:none"/><path d="m 15.61041,11.906254 v 1.058333 c 0,0.293157 -0.23601,0.529167 -0.52916,0.529167 h -4.23334 c 0,0.293157 0.23601,0.529167 0.52917,0.529167 h 4.23333 c 0.29316,0 0.52917,-0.23601 0.52917,-0.529167 V 12.43542 c 0,-0.293157 -0.23601,-0.529166 -0.52917,-0.529166 z" id="path7089" style="fill:#91b8fb;fill-opacity:1;stroke:none;stroke-width:0.529167;stroke-linecap:round;stroke-linejoin:round;stroke-miterlimit:4;stroke-dasharray:none"/><path d="m 11.377081,11.90625 c -0.29316,0 -0.529167,0.236007 -0.529167,0.529167 v 1.058333 c 0,0.29316 0.236007,0.529166 0.529167,0.529166 h 0.529166 c -0.293159,0 -0.529166,-0.236006 -0.529166,-0.529166 v -1.058333 c 0,-0.29316 0.236007,-0.529167 0.529166,-0.529167 z" id="path854" style="fill:#f8f8f8;fill-opacity:1;stroke:none;stroke-width:0.529167;stroke-linecap:round;stroke-linejoin:round;stroke-miterlimit:4;stroke-dasharray:none"/><path d="m 4.23333,3.96875 c -1.02287,0 -1.85208,0.829213 -1.85208,1.8520833 0,1.0228799 0.82921,1.8520833 1.85208,1.8520833 2.75166,0.017703 5.69733,0.00132 8.07548,0 0.86858,2.01e-5 1.66306,-0.5064988 2.03243,-1.2986287 C 14.71062,5.5821579 14.58782,4.648099 14.02602,3.978568 13.49609,3.347028 12.6664,3.058701 11.86543,3.217891 l -0.10211,0.02439 C 11.317,1.802029 9.97449,0.795288 8.46667,0.79375 6.60045,0.79377 5.07391,2.280433 5.0245,4.148326 4.77908,4.034425 4.51023,3.96875 4.23333,3.96875 Z" id="path7069" style="opacity:1;fill:#e2e7fa;fill-opacity:1;stroke:none;stroke-width:0.529167;stroke-linecap:round;stroke-linejoin:round"/><path d="M 11.76311,3.242179 C 11.31678,1.801927 9.97449,0.795288 8.46667,0.79375 c -0.12131,1e-6 -0.24103,0.0069 -0.35915,0.01912 1.71936,0.179284 3.37093,1.765371 3.1377,3.631819 0.56916,0 0.65842,-0.678046 0.51789,-1.20251 z" id="path7057" style="opacity:1;fill:#c4d2f0;fill-opacity:1;stroke:none;stroke-width:0.529167;stroke-linecap:round;stroke-linejoin:round"/><path d="m 13.59452,3.584277 c 0.47276,0.65676 0.56321,1.51958 0.21756,2.2608442 -0.36938,0.79213 -1.16386,1.2986488 -2.03244,1.2986287 -2.37815,0.00132 -5.32382,0.017703 -8.07547,0 -0.37604,0 -0.7254,-0.1128522 -1.01751,-0.3054077 0.33122,0.5024778 0.89983,0.8345744 1.54667,0.8345744 2.75166,0.017703 5.69733,0.00132 8.07548,0 0.86858,2.01e-5 1.66306,-0.5064988 2.03243,-1.2986287 C 14.71062,5.5821579 14.58782,4.648099 14.02602,3.978568 13.8983,3.826364 13.75246,3.695151 13.59452,3.584277 Z" id="path7064" style="opacity:1;fill:#c4d2f0;fill-opacity:1;stroke:none;stroke-width:0.529167;stroke-linecap:round;stroke-linejoin:round"/><path d="m 6.3499864,6.6145868 h 4.2333356 c 0.293157,0 0.529165,0.2360075 0.529165,0.5291647 v 1.0583377 c 0,0.2931572 -0.236008,0.5291647 -0.529165,0.5291647 H 6.3499864 c -0.2931572,0 -0.5291646,-0.2360075 -0.5291646,-0.5291647 V 7.1437515 c 0,-0.2931572 0.2360074,-0.5291647 0.5291646,-0.5291647 z" id="rect7072" style="fill:#a8c5f7;fill-opacity:1;stroke:none;stroke-width:0.529167;stroke-linecap:round;stroke-linejoin:round;stroke-miterlimit:4;stroke-dasharray:none"/><path d="m 10.58333,6.6145832 v 1.0583334 c 0,0.2931572 -0.23601,0.5291666 -0.52916,0.5291666 H 5.82083 c 0,0.2931573 0.23601,0.5291667 0.52917,0.5291667 h 4.23333 c 0.29316,0 0.52917,-0.2360094 0.52917,-0.5291667 V 7.1437499 c 0,-0.2931573 -0.23601,-0.5291667 -0.52917,-0.5291667 z" id="rect7078" style="fill:#91b8fb;fill-opacity:1;stroke:none;stroke-width:0.529167;stroke-linecap:round;stroke-linejoin:round;stroke-miterlimit:4;stroke-dasharray:none"/><path d="m 6.3499905,8.7312489 h 4.2333275 c 0.29316,0 0.529169,0.2360092 0.529169,0.5291687 v 1.0583294 c 0,0.29316 -0.236009,0.529169 -0.529169,0.529169 H 6.3499905 c -0.2931595,0 -0.5291687,-0.236009 -0.5291687,-0.529169 V 9.2604176 c 0,-0.2931595 0.2360092,-0.5291687 0.5291687,-0.5291687 z" id="rect7074" style="fill:#a8c5f7;fill-opacity:1;stroke:none;stroke-width:0.529167;stroke-linecap:round;stroke-linejoin:round;stroke-miterlimit:4;stroke-dasharray:none"/><path d="m 6.3499888,6.6145846 c -0.29316,0 -0.529167,0.236007 -0.529167,0.529167 v 1.058333 c 0,0.29316 0.236007,0.529166 0.529167,0.529166 h 0.529166 c -0.293159,0 -0.529166,-0.236006 -0.529166,-0.529166 v -1.058333 c 0,-0.29316 0.236007,-0.529167 0.529166,-0.529167 z" id="path858" style="fill:#f8f8f8;fill-opacity:1;stroke:none;stroke-width:0.529167;stroke-linecap:round;stroke-linejoin:round;stroke-miterlimit:4;stroke-dasharray:none"/><path d="m 10.58333,8.7312499 v 1.0583333 c 0,0.2931568 -0.23601,0.5291668 -0.52916,0.5291668 H 5.82083 c 0,0.293157 0.23601,0.529167 0.52917,0.529167 h 4.23333 c 0.29316,0 0.52917,-0.23601 0.52917,-0.529167 V 9.2604165 c 0,-0.2931572 -0.23601,-0.5291666 -0.52917,-0.5291666 z" id="path7081" style="fill:#91b8fb;fill-opacity:1;stroke:none;stroke-width:0.529167;stroke-linecap:round;stroke-linejoin:round;stroke-miterlimit:4;stroke-dasharray:none"/><path d="m 6.3499888,8.7312506 c -0.29316,0 -0.529167,0.236007 -0.529167,0.529167 v 1.0583334 c 0,0.29316 0.236007,0.529167 0.529167,0.529167 h 0.529166 c -0.293159,0 -0.529166,-0.236007 -0.529166,-0.529167 V 9.2604176 c 0,-0.29316 0.236007,-0.529167 0.529166,-0.529167 z" id="path860" style="fill:#f8f8f8;fill-opacity:1;stroke:none;stroke-width:0.529167;stroke-linecap:round;stroke-linejoin:round;stroke-miterlimit:4;stroke-dasharray:none"/><path d="M 5 45 C 3.8919956 45 3 45.891994 3 47 L 3 51 C 3 52.108006 3.8919956 53 5 53 L 7 53 C 5.8919956 53 5 52.108006 5 51 L 5 47 C 5 45.891994 5.8919956 45 7 45 L 5 45 z " id="path849" style="fill:#f8f8f8;fill-opacity:1;stroke:none;stroke-width:2.00000119;stroke-linecap:round;stroke-linejoin:round;stroke-miterlimit:4;stroke-dasharray:none" transform="scale(0.26458333)"/><path d="m 1.3229166,14.022916 c -0.2931594,0 -0.52916661,0.236007 -0.52916661,0.529167 v 1.058333 c 0,0.29316 0.23600721,0.529167 0.52916661,0.529167 h 0.5291667 c -0.2931595,0 -0.5291667,-0.236007 -0.5291667,-0.529167 v -1.058333 c 0,-0.29316 0.2360072,-0.529167 0.5291667,-0.529167 z" id="path852" style="fill:#f8f8f8;fill-opacity:1;stroke:none;stroke-width:0.529167;stroke-linecap:round;stroke-linejoin:round;stroke-miterlimit:4;stroke-dasharray:none"/><path d="m 11.377081,14.022916 c -0.29316,0 -0.529167,0.236007 -0.529167,0.529167 v 1.058333 c 0,0.29316 0.236007,0.529167 0.529167,0.529167 h 0.529166 c -0.293159,0 -0.529166,-0.236007 -0.529166,-0.529167 v -1.058333 c 0,-0.29316 0.236007,-0.529167 0.529166,-0.529167 z" id="path856" style="fill:#f8f8f8;fill-opacity:1;stroke:none;stroke-width:0.529167;stroke-linecap:round;stroke-linejoin:round;stroke-miterlimit:4;stroke-dasharray:none"/><path d="M 32 3 C 25.145573 3.0000735 19.519445 8.3115137 19.035156 15.089844 C 19.713638 15.195462 20.373041 15.393244 20.990234 15.679688 C 21.168658 8.9345518 26.446751 3.5175049 33.068359 3.046875 C 32.715113 3.0169133 32.358892 3.0003661 32 3 z M 46.375 12.017578 C 46.401384 12.097257 46.434069 12.173506 46.458984 12.253906 L 46.845703 12.162109 C 47.06641 12.118245 47.288386 12.102209 47.509766 12.076172 C 47.134124 12.031002 46.756294 12.012021 46.375 12.017578 z M 16 15 C 12.134035 15 9 18.134033 9 22 C 9 25.866003 12.134035 29 16 29 C 21.540586 29.035646 27.234244 29.034786 32.755859 29.025391 C 27.870169 29.031429 22.85911 29.031261 18 29 C 14.134035 29 11 25.866003 11 22 C 11 18.478152 13.604431 15.572965 16.990234 15.082031 C 16.663601 15.033395 16.334762 15 16 15 z " id="path864" style="opacity:1;fill:#f8f8f8;fill-opacity:1;stroke:none;stroke-width:2.00000119;stroke-linecap:round;stroke-linejoin:round" transform="scale(0.26458333)"/><path d="m 4.7873059,3.7801216 c -0.1786498,-0.0485 -0.3642198,-0.0749 -0.55294,-0.0749 -1.1658698,0 -2.1171798,0.9492499 -2.1171798,2.1151098 0,1.1658701 0.95131,2.11719 2.1171798,2.11719 h 1.3223999 v 0.2635499 c 0,0.0933 0.019,0.18206 0.0491,0.2656101 h -1.37356 c -0.5817399,0 -1.0562598,0.4771099 -1.0562598,1.0588498 V 11.642721 H 1.3224061 c -0.43515992,0 -0.79322992,0.35755 -0.79322992,0.79271 v 1.05885 c 0,0.20332 0.0806,0.38771 0.20826,0.52865 -0.12762,0.1414 -0.20826,0.32636 -0.20826,0.52969 v 1.05885 c 0,0.43516 0.35807,0.79271 0.79322992,0.79271 h 4.2343698 c 0.4351599,0 0.79272,-0.35755 0.79272,-0.79271 v -1.05885 c 0,-0.20333 -0.0801,-0.38829 -0.20774,-0.52969 0.1276101,-0.14094 0.20774,-0.32533 0.20774,-0.52865 v -1.05885 c 0,-0.43516 -0.3575601,-0.79271 -0.79272,-0.79271 H 3.7052062 V 9.5255314 c 0,-0.2977298 0.2293699,-0.5291598 0.5270997,-0.5291598 H 5.605356 c -0.0297,0.0829 -0.0486,0.1708799 -0.0486,0.2635499 v 1.0583305 c 0,0.435159 0.35755,0.795299 0.7927199,0.795299 h 4.2343611 c 0.43517,0 0.79324,-0.36014 0.79324,-0.795299 V 9.2599215 c 0,-0.0927 -0.0194,-0.1806099 -0.0491,-0.2635499 h 1.37098 c 0.29773,0 0.52968,0.23143 0.52968,0.5291598 v 2.1171896 h -1.85156 c -0.43516,0 -0.79324,0.35755 -0.79324,0.79271 v 1.05885 c 0,0.20332 0.0806,0.38771 0.20826,0.52865 -0.12762,0.1414 -0.20826,0.32636 -0.20826,0.52969 v 1.05885 c 0,0.43516 0.35807,0.79271 0.79324,0.79271 h 4.23436 c 0.43516,0 0.79272,-0.35755 0.79272,-0.79271 v -1.05885 c 0,-0.20333 -0.0801,-0.38829 -0.20774,-0.52969 0.12762,-0.14094 0.20774,-0.32533 0.20774,-0.52865 v -1.05885 c 0,-0.43516 -0.35756,-0.79271 -0.79272,-0.79271 h -1.85363 V 9.5255314 c 0,-0.5817399 -0.47711,-1.0588498 -1.05885,-1.0588498 h -1.37149 c 0.0301,-0.0836 0.0496,-0.17233 0.0496,-0.2656101 V 7.9375216 h 0.93172 c 0.97142,2.01e-5 1.86068,-0.56633 2.27325,-1.45108 0.41256,-0.88475 0.27403,-1.9300499 -0.35347,-2.6778698 -0.56461,-0.67288 -1.43439,-0.99155 -2.2903,-0.86558 -0.52729,-1.41032 -1.88549,-2.41380985 -3.471611,-2.41382485 -1.8855201,-1.5e-5 -3.4527299,1.41591485 -3.6793501,3.25095465 z m 6.8574611,0.3741301 c 0.005,0.1454301 0.12585,0.2596801 0.2713,0.2558 0.1462,-0.004 0.26173,-0.1251 0.25787,-0.2713001 -0.006,-0.2345798 -0.0364,-0.46307 -0.0842,-0.6847099 0.6513,-0.0703 1.30454,0.1824101 1.73426,0.69453 0.49612,0.59124 0.60369,1.4135401 0.27751,2.11305 -0.32619,0.6995099 -1.02692,1.14672 -1.79266,1.1466999 h -0.93172 V 7.1447717 c 0,-0.4351602 -0.35808,-0.7953001 -0.79324,-0.7953001 H 6.349526 c -0.4351599,0 -0.7927199,0.3601399 -0.7927199,0.7953001 V 7.4083216 H 4.2344059 c -0.8798899,0 -1.5880198,-0.70813 -1.5880198,-1.5880199 0,-0.87987 0.7081299,-1.5880101 1.5880198,-1.5880101 0.3442502,0 0.6748301,0.1136201 0.94723,0.3167701 0.11748,0.0878 0.2838601,0.0631 0.37104,-0.0548 0.0864,-0.1171401 0.0619,-0.2824401 -0.0548,-0.3694901 -0.0632,-0.0472 -0.1292399,-0.0891 -0.1968899,-0.1286798 0.12403,-1.65029 1.4927598,-2.9372799 3.1656899,-2.9372649 1.7258511,1.5e-5 3.1325911,1.3701749 3.1780911,3.0954248 z M 6.3298461,2.9434818 c -0.1088801,0.0985 -0.1167601,0.2664199 -0.0176,0.3746498 0.0983,0.1075902 0.2651299,0.1154401 0.3731,0.0176 0.47039,-0.4284499 1.0938198,-0.6893599 1.7812898,-0.6893599 0.68746,0 1.3108896,0.2609 1.7812811,0.6893599 0.10797,0.0979 0.27482,0.09 0.37311,-0.0176 0.0992,-0.1082299 0.0913,-0.2761798 -0.0176,-0.3746498 -0.56385,-0.51359 -1.3151011,-0.82631 -2.136791,-0.82631 -0.8217002,0 -1.5729401,0.31272 -2.1367899,0.82631 z m 0.7539598,0.7462 c -0.1105199,0.0955 -0.1228,0.26201 -0.0274,0.3725899 0.0955,0.1105199 0.2625201,0.1228 0.3731001,0.0274 0.2784099,-0.24033 0.6394399,-0.38447 1.0371499,-0.38447 0.3977101,0 0.7587398,0.14414 1.0371496,0.38447 0.11058,0.0954 0.27761,0.0831 0.3731,-0.0274 0.0954,-0.1105799 0.0831,-0.2770999 -0.0274,-0.3725899 -0.37061,-0.3199202 -0.8558896,-0.51366 -1.3828496,-0.51366 -0.52696,0 -1.01224,0.19373 -1.38285,0.51366 z M 8.466666,4.2322916 c -0.2104102,0 -0.41139,0.0858 -0.56017,0.2346101 -0.10258,0.1031901 -0.10258,0.2699099 0,0.3731 0.1031899,0.10258 0.26939,0.10258 0.3725799,0 0.0497,-0.0497 0.1173199,-0.0786 0.1875901,-0.0786 0.0703,0 0.13789,0.0289 0.1875798,0.0786 0.0515,0.0519 0.1222401,0.0801 0.19534,0.078 0.067,-0.003 0.13056,-0.0304 0.1777701,-0.078 0.10257,-0.1031901 0.10257,-0.2699099 0,-0.3731 C 8.8785659,4.3181116 8.6770759,4.2322916 8.466666,4.2322916 Z m 0,1.0593602 c -0.1461302,0 -0.2645802,0.1184598 -0.2645802,0.2645899 0,0.1461199 0.11845,0.2645799 0.2645802,0.2645799 0.1461198,0 0.2645799,-0.11846 0.2645799,-0.2645799 0,-0.1461301 -0.1184601,-0.2645899 -0.2645799,-0.2645899 z M 6.3494861,6.8786417 H 7.673946 V 8.4666515 H 6.3494861 c -0.1511602,0 -0.2635502,-0.1144598 -0.2635502,-0.2656099 V 7.1447717 c 0,-0.1511501 0.11239,-0.26613 0.2635502,-0.26613 z m 1.8515597,0 h 2.3828012 c 0.15116,0 0.26355,0.1149799 0.26355,0.26613 v 1.0562699 c 0,0.1511501 -0.11239,0.2656099 -0.26355,0.2656099 H 8.2010458 Z M 6.879166,7.4083216 c -0.1461301,0 -0.2645801,0.11846 -0.2645801,0.2645799 0,0.1461302 0.11845,0.2645902 0.2645801,0.2645902 0.1461199,0 0.2645799,-0.11846 0.2645799,-0.2645902 0,-0.1461199 -0.11846,-0.2645799 -0.2645799,-0.2645799 z m 2.1171799,0 c -0.14694,-5.821e-4 -0.26671,0.1186799 -0.26613,0.26562 5.027e-4,0.1461701 0.1199599,0.26412 0.26613,0.2635501 h 1.0583411 c 0.14541,-5.027e-4 0.26305,-0.1181402 0.26355,-0.2635501 5.82e-4,-0.1461799 -0.11738,-0.2651199 -0.26355,-0.26562 z M 6.3494861,8.9963415 H 7.673946 V 10.583841 H 6.3494861 c -0.1511602,0 -0.2635502,-0.11446 -0.2635502,-0.26562 V 9.2598916 c 0,-0.1511601 0.11239,-0.2635501 0.2635502,-0.2635501 z m 1.8515597,0 h 2.3828012 c 0.15116,0 0.26355,0.11239 0.26355,0.2635501 v 1.0583294 c 0,0.15116 -0.11239,0.26562 -0.26355,0.26562 H 8.2010458 Z M 6.879166,9.5249914 c -0.1461301,0 -0.2645801,0.1184503 -0.2645801,0.2645802 0,0.1461198 0.11845,0.2645794 0.2645801,0.2645794 0.1461199,0 0.2645799,-0.1184596 0.2645799,-0.2645794 0,-0.1461299 -0.11846,-0.2645802 -0.2645799,-0.2645802 z m 2.1171799,5.292e-4 c -0.1461701,-5.821e-4 -0.26563,0.1173699 -0.26613,0.2635498 -5.821e-4,0.1469401 0.11919,0.2661896 0.26613,0.2656106 h 1.0583411 c 0.14617,-5.03e-4 0.26412,-0.1194404 0.26355,-0.2656106 -5.03e-4,-0.14542 -0.11814,-0.26305 -0.26355,-0.2635498 z M 1.3223961,12.169791 h 1.32395 v 1.58801 h -1.32395 c -0.15115,0 -0.26355,-0.11239 -0.26355,-0.26355 v -1.05885 c 0,-0.15115 0.1124,-0.26561 0.26355,-0.26561 z m 1.85364,0 h 2.3807297 c 0.1511502,0 0.2635502,0.11446 0.2635502,0.26561 v 1.05885 c 0,0.15116 -0.1124,0.26355 -0.2635502,0.26355 H 3.1760361 Z m 8.2010509,0 h 1.32188 v 1.58801 h -1.32188 c -0.15116,0 -0.26355,-0.11239 -0.26355,-0.26355 v -1.05885 c 0,-0.15115 0.11239,-0.26561 0.26355,-0.26561 z m 1.85156,0 h 2.3828 c 0.15116,0 0.26355,0.11446 0.26355,0.26561 v 1.05885 c 0,0.15116 -0.11239,0.26355 -0.26355,0.26355 h -2.3828 z m -9.259901,0.52916 c -0.1461699,5.03e-4 -0.2641201,0.11996 -0.2635499,0.26614 5.027e-4,0.14541 0.1181399,0.26305 0.2635499,0.26355 h 1.0588499 c 0.14542,-5.03e-4 0.2630501,-0.11814 0.2635499,-0.26355 5.821e-4,-0.14618 -0.11737,-0.26563 -0.2635499,-0.26614 z m 10.054691,0 c -0.14694,-5.82e-4 -0.2662,0.1192 -0.26562,0.26614 5.03e-4,0.14617 0.11944,0.26412 0.26562,0.26355 h 1.05885 c 0.14541,-5.03e-4 0.26305,-0.11814 0.26355,-0.26355 5.82e-4,-0.14618 -0.11738,-0.26563 -0.26355,-0.26614 z m -12.1713509,0.001 c -0.14613,0 -0.26459,0.11846 -0.26459,0.26459 0,0.14612 0.1184599,0.26458 0.26459,0.26458 0.14612,0 0.26458,-0.11846 0.26458,-0.26458 0,-0.14613 -0.11846,-0.26459 -0.26458,-0.26459 z m 10.0541609,0 c -0.14612,0 -0.26458,0.11846 -0.26458,0.26459 0,0.14612 0.11846,0.26458 0.26458,0.26458 0.14613,0 0.26459,-0.11846 0.26459,-0.26458 0,-0.14613 -0.11846,-0.26459 -0.26459,-0.26459 z m -9.2599009,1.58699 v 1.58805 h -1.32395 c -0.15115,0 -0.26355,-0.1124 -0.26355,-0.26355 v -1.05885 c 0,-0.15116 0.1124,-0.26562 0.26355,-0.265635 z m 0.52969,0 h 2.3807297 c 0.1511602,0 0.2635502,0.11446 0.2635502,0.26561 v 1.05885 c 0,0.15116 -0.11239,0.26355 -0.2635502,0.26355 H 3.1760361 Z m 9.5229309,0 v 1.58805 h -1.32188 c -0.15116,0 -0.26355,-0.1124 -0.26355,-0.26355 v -1.05885 c 0,-0.15116 0.11239,-0.26562 0.26355,-0.265635 z m 0.52968,0 h 2.3828 c 0.15116,0 0.26355,0.11446 0.26355,0.26561 v 1.05885 c 0,0.15116 -0.11239,0.26355 -0.26355,0.26355 h -2.3828 z m -9.259901,0.52916 c -0.1461699,5.02e-4 -0.2641201,0.11996 -0.2635499,0.26614 5.027e-4,0.14541 0.1181399,0.26305 0.2635499,0.26355 h 1.0588499 c 0.14542,-5.03e-4 0.2630501,-0.11814 0.2635499,-0.26355 5.821e-4,-0.14618 -0.11737,-0.26564 -0.2635499,-0.26614 z m 10.054691,0 c -0.14694,-5.82e-4 -0.2662,0.1192 -0.26562,0.26614 5.03e-4,0.14617 0.11944,0.26412 0.26562,0.26355 h 1.05885 c 0.14541,-5.03e-4 0.26305,-0.11814 0.26355,-0.26355 5.82e-4,-0.14618 -0.11738,-0.26564 -0.26355,-0.26614 z M 1.8520861,14.81663 c -0.14613,0 -0.26459,0.11846 -0.26459,0.26458 0,0.14613 0.11846,0.26459 0.26459,0.26459 0.14612,0 0.26458,-0.11846 0.26458,-0.26459 0,-0.14612 -0.11846,-0.26458 -0.26458,-0.26458 z m 10.0541609,0 c -0.14612,0 -0.26458,0.11846 -0.26458,0.26458 0,0.14613 0.11846,0.26459 0.26458,0.26459 0.14613,0 0.26459,-0.11846 0.26459,-0.26459 0,-0.14612 -0.11846,-0.26458 -0.26459,-0.26458 z" id="Icon_27" style="color:#000000;font-style:normal;font-variant:normal;font-weight:normal;font-stretch:normal;font-size:medium;line-height:normal;font-family:sans-serif;font-variant-ligatures:normal;font-variant-position:normal;font-variant-caps:normal;font-variant-numeric:normal;font-variant-alternates:normal;font-feature-settings:normal;text-indent:0;text-align:start;text-decoration:none;text-decoration-line:none;text-decoration-style:solid;text-decoration-color:#000000;letter-spacing:normal;word-spacing:normal;text-transform:none;writing-mode:lr-tb;direction:ltr;text-orientation:mixed;dominant-baseline:auto;baseline-shift:baseline;text-anchor:start;white-space:normal;shape-padding:0;clip-rule:nonzero;display:inline;overflow:visible;visibility:visible;isolation:auto;mix-blend-mode:normal;color-interpolation:sRGB;color-interpolation-filters:linearRGB;solid-color:#000000;solid-opacity:1;vector-effect:none;fill:#66a0fe;fill-opacity:1;fill-rule:nonzero;stroke:none;stroke-width:0.99999994;stroke-linecap:round;stroke-linejoin:round;stroke-miterlimit:4;stroke-dasharray:none;stroke-dashoffset:0;stroke-opacity:1;color-rendering:auto;image-rendering:auto;shape-rendering:auto;text-rendering:auto;enable-background:accumulate"/></g></svg>