<?xml version="1.0" ?><svg xmlns="http://www.w3.org/2000/svg" xmlns:xlink="http://www.w3.org/1999/xlink" version="1.1" viewBox="0 0 512 512" style="enable-background:new 0 0 512 512;" xml:space="preserve"><g id="_x33_5_x2C__Pricing_x2C__Cost_x2C__Value_x2C__Rates_x2C__Affordability_x2C__Strategy"><g><g><polygon style="fill:#9DCAFC;" points="506,138.062 313.002,268.334 120.004,138.06 313.002,30.833    "/><polygon style="fill:#9DCAFC;" points="313.002,245.281 332.668,339.1 313.002,443.229 198.003,400.999 120.004,336.42      120.004,138.06    "/><polygon style="fill:#FFFFFF;" points="313.002,443.639 332.668,454.332 313.002,481.169 120.004,373.97 120.004,336.42      313.002,443.229    "/><polygon style="fill:#9DCAFC;" points="506,138.062 506,336.42 422.668,400.999 313.002,443.639 313.002,443.229      313.002,245.281    "/><path style="fill:#9DCAFC;" d="M261.002,385.83c0,41.493-33.667,74.999-74.999,74.999c-41.42,0-74.999-33.58-74.999-74.999     c0-41.325,33.498-74.999,74.999-74.999C227.423,310.83,261.002,344.41,261.002,385.83z"/><circle style="fill:#FFFFFF;" cx="186.003" cy="385.83" r="54.999"/><polygon style="fill:#FFFFFF;" points="433.631,178.272 433.631,312.3 411.911,307.4 385.381,339.1 385.381,205.071      192.383,97.852 240.633,71.043 240.633,71.053    "/><polygon style="fill:#FFFFFF;" points="506,336.42 506,373.95 313.002,481.169 313.002,443.639    "/><path style="fill:#FFFFFF;" d="M178.993,170.832h-27.99v104.999h-31h-19V170.832c-10.853,0-20.142,0-31.187,0l16.187-16.36     l40-43.64L178.993,170.832z"/><polygon style="fill:#9DCAFC;" points="61.004,30.833 116.004,90.833 86.004,90.833 86.004,235.831 36.005,235.831      36.005,90.833 6.005,90.833    "/><path style="fill:#4269A7;" d="M201.003,365.83c2.762,0,5-2.238,5-5c0-2.762-2.238-5-5-5h-10v-5c0-2.762-2.238-5-5-5     c-2.762,0-5,2.238-5,5v5h-10c-2.762,0-5,2.238-5,5v25c0,2.762,2.238,5,5,5h25v15h-25c-2.762,0-5,2.238-5,5s2.238,5,5,5h10v5     c0,2.762,2.238,5,5,5c2.762,0,5-2.238,5-5v-5h10c2.762,0,5-2.238,5-5v-25c0-2.762-2.238-5-5-5h-25v-15H201.003z"/><path style="fill:#4269A7;" d="M186.003,325.83c-33.084,0-59.999,26.916-59.999,59.999s26.916,59.999,59.999,59.999     s59.999-26.916,59.999-59.999S219.087,325.83,186.003,325.83z M186.003,435.829c-27.57,0-50-22.429-50-50     s22.429-49.999,50-49.999s49.999,22.429,49.999,49.999S213.573,435.829,186.003,435.829z"/><path style="fill:#4269A7;" d="M508.429,133.691L315.431,26.462c-1.512-0.838-3.348-0.838-4.857,0     c-0.12,0.067-168.871,93.82-169.039,93.914l-11.845-12.922c-1.98-2.159-5.391-2.162-7.371,0l-31.314,34.163V95.833h25     c4.338,0,6.623-5.174,3.686-8.379L64.69,27.454c-1.98-2.16-5.39-2.161-7.371,0L2.32,87.454c-2.931,3.198-0.661,8.379,3.686,8.379     h25v139.999c0,2.762,2.238,5,5,5h50c2.762,0,5-2.238,5-5v-59.999h5v99.999c0,2.762,2.238,5,5,5h14v68.204     c-5.737,11.024-9,23.532-9,36.795c0,44.112,35.887,79.999,79.999,79.999c20.281,0,38.811-7.6,52.927-20.084l71.644,39.794     c1.539,0.854,3.385,0.817,4.855,0l192.998-107.219c1.588-0.882,2.572-2.556,2.572-4.371V138.062     C511,136.299,510.027,134.581,508.429,133.691z M258.837,418.858l49.165,27.314v26.5l-61.751-34.299     C251.339,432.547,255.594,425.982,258.837,418.858z M318.002,248.224l62.374-34.652v125.529c0,4.554,5.793,6.843,8.834,3.209     l24.576-29.362c6.063,1.366,12.815,2.893,18.782,4.231c3.023,0.651,6.058-1.64,6.058-4.883V181.216L501,146.56v186.918     L318.002,435.144V248.224z M240.627,76.767l187.999,104.445v124.83l-15.616-3.521c-1.825-0.412-3.731,0.232-4.934,1.669     l-17.7,21.147V205.075c0-1.756-0.966-3.545-2.742-4.465L202.675,97.854L240.627,76.767z M313.002,36.553l182.702,101.509     l-62.075,34.49L250.922,71.047L313.002,36.553z M192.38,103.574l182.7,101.501l-62.078,34.487l-127.46-70.812     c-0.637-1.391,0.988,0.849-37.06-40.794L192.38,103.574z M81.004,230.831h-40V90.833c0-2.762-2.238-5-5-5H17.371l43.633-47.6     l43.633,47.6H86.004c-2.762,0-5,2.238-5,5V230.831z M101.004,165.832h-10v-9.415l35-38.185l43.633,47.6h-18.634     c-2.762,0-5,2.238-5,5v99.999h-40v-99.999C106.004,168.07,103.766,165.832,101.004,165.832z M125.004,280.831h26     c2.762,0,5-2.238,5-5v-99.999h21.694l130.304,72.392v186.508l-45.554-25.308c2.308-7.462,3.554-15.385,3.554-23.594     c0-44.112-35.887-79.999-79.999-79.999c-24.425,0-46.314,11.015-60.999,28.323V280.831z M116.004,385.83     c0-38.597,31.402-69.999,69.999-69.999s69.999,31.402,69.999,69.999s-31.402,69.999-69.999,69.999     S116.004,424.427,116.004,385.83z M318.002,472.672v-26.088L501,344.918v26.09L318.002,472.672z"/></g></g></g><g id="Layer_1"/></svg>