<svg viewBox="0 0 512 512" xml:space="preserve" xmlns="http://www.w3.org/2000/svg"><path d="M245.368 46.908a2.11 2.11 0 0 1 .768 2.355L240.71 65.96c-.633 1.943 1.592 3.559 3.244 2.357L258.157 58a2.106 2.106 0 0 1 2.477 0l14.203 10.318c1.652 1.201 3.877-.414 3.246-2.357l-5.426-16.697a2.104 2.104 0 0 1 .766-2.355l14.203-10.457c1.652-1.201.805-3.951-1.238-3.951h-17.557c-.912 0-1.723-.451-2.004-1.32l-5.426-16.628c-.631-1.941-3.379-1.908-4.01.033l-5.426 16.578c-.283.867-1.092 1.337-2.006 1.337h-17.557c-2.041 0-2.891 2.75-1.238 3.951l14.204 10.456zM419.888 105.883a2.11 2.11 0 0 1-.387-2.447l7.971-15.645c.926-1.818-1.018-3.762-2.838-2.836l-15.643 7.971a2.106 2.106 0 0 1-2.447-.387L394.13 80.125c-1.443-1.445-3.891-.197-3.572 1.82l2.746 17.34a2.111 2.111 0 0 1-1.125 2.209l-15.643 7.971c-1.82.926-1.391 3.641.627 3.959l17.34 2.748c.904.143 1.611.85 1.754 1.752l2.744 17.34c.32 2.018 3.035 2.447 3.961.627l7.971-15.643a2.108 2.108 0 0 1 2.209-1.125l17.34 2.746c2.018.32 3.266-2.129 1.82-3.572l-12.414-12.414zM497.972 252.951l-16.354-5.426c-.871-.283-1.117-1.092-1.117-2.006v-17.557c0-2.041-2.957-2.891-4.156-1.238l-10.486 14.203c-.539.738-1.578 1.049-2.445.768l-16.739-5.428c-1.941-.631-3.578 1.592-2.379 3.244l10.311 14.205a2.109 2.109 0 0 1-.005 2.477l-10.322 14.205c-1.199 1.652.412 3.875 2.355 3.244l16.696-5.426a2.11 2.11 0 0 1 2.357.766l10.659 14.203c1.199 1.652 4.154.805 4.154-1.238V264.39c0-.914.246-1.723 1.117-2.004l16.527-5.428c1.941-.628 1.77-3.376-.173-4.007zM139.704 108.779c2.018-.32 2.447-3.033.629-3.961l-15.643-7.971a2.101 2.101 0 0 1-1.125-2.209l2.744-17.34c.32-2.018-2.129-3.264-3.572-1.82l-12.412 12.414a2.108 2.108 0 0 1-2.449.387l-15.645-7.971c-1.818-.926-3.762 1.018-2.834 2.836l7.969 15.645c.416.813.26 1.801-.387 2.447L84.565 113.65c-1.443 1.443-.197 3.893 1.82 3.572l17.34-2.746a2.108 2.108 0 0 1 2.209 1.125l7.971 15.643c.928 1.82 3.641 1.391 3.959-.627l2.748-17.34a2.108 2.108 0 0 1 1.752-1.752l17.34-2.746zM67.948 232.941c1.199-1.65-.416-3.875-2.357-3.242l-16.697 5.424a2.103 2.103 0 0 1-2.355-.766l-10.274-14.203c-1.199-1.652-3.764-.805-3.764 1.238v17.557c0 .914-.634 1.723-1.505 2.004l-16.721 5.428c-1.941.629-1.957 3.377-.013 4.01L31 255.814c.869.283 1.5 1.092 1.5 2.006v17.557c0 2.041 2.565 2.891 3.764 1.238l10.298-14.203a2.086 2.086 0 0 1 2.342-.766l16.691 5.426c1.943.631 3.553-1.592 2.354-3.244l-10.32-14.203a2.109 2.109 0 0 1 .001-2.479l10.318-14.205zM370.45 256.971c-1.906-41.326-25.762-76.92-60.197-95.363a102.67 102.67 0 0 0-8.371-4.074c-13.943-6.061-29.33-9.424-45.504-9.424-60.75 0-110.352 47.451-113.909 107.326l.031-.006v.203c0 2.209-.105 12.098-.105 12.098l-1.701 3.77h11.371c4.273-14 17.393-23.568 32.871-23.568 18.945 0 34.359 15.826 34.359 34.771 0 18.943-15.414 34.052-34.359 34.052-18.135 0-33.029-14.255-34.266-32.255h-13.568c-.289 0-.563.463-.842.424l-14.273 39.865c-2.004 5.559 2.113 11.711 8.02 11.711h12.291l-.092 63.488c0 12.535 10.166 22.512 22.701 22.512H205.5v59.693c0 9.301 9.341 16.307 18.642 16.307h104.434c9.301 0 16.925-7.006 16.925-16.307V362.277c0-16.357 4.316-32.328 11.959-46.795 7.984-15.111 12.658-32.227 13.094-50.404.02-.912.029-1.844.029-2.777a119.242 119.242 0 0 0-.133-5.33zM258.216 248.5H248.5v9.793c0 3.418-3.084 6.188-6.5 6.188s-6.5-2.77-6.5-6.188V248.5h-8.802c-3.416 0-6.188-3.084-6.188-6.5s2.771-6.5 6.188-6.5h8.802v-8.725c0-3.416 3.084-6.188 6.5-6.188s6.5 2.771 6.5 6.188v8.725h9.716c3.416 0 6.188 3.084 6.188 6.5s-2.772 6.5-6.188 6.5z" fill="#ffffff" class="fill-000000"></path><path d="M200.507 298.637c3.938-3.982 6.414-9.449 6.414-15.523 0-12.129-9.855-21.982-21.984-21.982a21.913 21.913 0 0 0-15.457 6.346c-4.025 4.004-6.523 9.539-6.523 15.637 0 12.127 9.854 21.982 21.98 21.982a21.972 21.972 0 0 0 15.57-6.46z" fill="#ffffff" class="fill-000000"></path></svg>