<svg viewBox="0 0 100 100" xml:space="preserve" xmlns="http://www.w3.org/2000/svg"><path d="M65.15 21.893c4.389 0 7.967 3.65 7.967 8.143 0 4.506-3.578 8.156-7.967 8.156s-7.967-3.65-7.967-8.156c.001-4.493 3.579-8.143 7.967-8.143z" fill="#ffffff" class="fill-acacac"></path><clipPath id="a"></clipPath><g clip-path="url(#a)" fill="#ffffff" class="fill-4f4f4f"><path d="M73.117 30.035v2.402c0 .408-.027.811-.086 1.199v-2.4c.059-.392.086-.793.086-1.201M73.031 31.236v2.4a7.96 7.96 0 0 1-.311 1.342v-2.4c.141-.432.245-.883.311-1.342"></path><path d="M72.721 32.578v2.4c-.162.512-.375 1-.627 1.463v-2.402c.252-.463.465-.949.627-1.461M72.094 34.039v2.402c-1.371 2.477-3.971 4.152-6.943 4.152-4.389 0-7.967-3.65-7.967-8.156v-2.402c0 4.506 3.578 8.156 7.967 8.156 2.972 0 5.572-1.673 6.943-4.152"></path></g><path d="M50 33.031c3.904 0 7.068 3.244 7.068 7.227 0 3.988-3.164 7.229-7.068 7.229-3.891 0-7.057-3.24-7.057-7.229 0-3.983 3.166-7.227 7.057-7.227z" fill="#ffffff" class="fill-acacac"></path><clipPath id="b"></clipPath><g clip-path="url(#b)" fill="#ffffff" class="fill-4f4f4f"><path d="M57.068 40.258v2.402c0 .361-.025.715-.074 1.061v-2.402c.049-.346.074-.7.074-1.061M56.994 41.318v2.402c-.061.408-.15.807-.275 1.193v-2.402c.125-.384.215-.782.275-1.193M56.719 42.512v2.402a7.448 7.448 0 0 1-.557 1.293v-2.4a7.37 7.37 0 0 0 .557-1.295M56.162 43.807v2.4c-1.215 2.195-3.52 3.682-6.162 3.682-3.891 0-7.057-3.242-7.057-7.229v-2.402c0 3.988 3.166 7.229 7.057 7.229 2.643-.001 4.947-1.487 6.162-3.68"></path></g><path fill="#ffffff" d="m55.664 52.139-.613 2.627h-4.176v-2.401zM49.129 52.365v2.401h-4.178l-.787-2.627zM73.332 54.195h1.309v2.402h-1.309zM25.598 54.209h1.299v2.402h-1.299zM26.896 61.375h7.145v2.4h-7.145zM20.584 61.375h5.014v2.4h-5.014z" class="fill-4f4f4f"></path><path d="M70.188 42.486c5.438 0 9.229 3.418 9.229 8.295v10.594h-4.775v-7.18h-1.309v7.18H65.96c-.482-5.357-4.822-9.01-10.908-9.01h-4.176v-.906c4.662-.42 8.377-4.207 8.789-8.949.15-.01.287-.023.438-.023h10.085z" fill="#ffffff" class="fill-acacac"></path><path fill="#ffffff" d="M74.641 61.375h4.775v2.4h-4.775zM65.959 61.375h7.373v2.4h-7.373z" class="fill-4f4f4f"></path><clipPath id="c"></clipPath><g clip-path="url(#c)"><path d="M65.959 61.375v2.4c-.482-5.357-4.822-9.01-10.908-9.01v-2.4c6.086 0 10.426 3.653 10.908 9.01" fill="#ffffff" class="fill-4f4f4f"></path></g><path d="M39.898 42.5c.152 0 .301.01.449.01.414 4.742 4.127 8.529 8.781 8.949v.906H44.95c-6.084 0-10.436 3.652-10.91 9.01h-7.145v-7.166h-1.299v7.166h-5.014V50.793c0-4.889 3.793-8.293 9.23-8.293h10.086z" fill="#ffffff" class="fill-acacac"></path><clipPath id="d"></clipPath><g clip-path="url(#d)" fill="#ffffff" class="fill-4f4f4f"><path d="M44.951 52.365v2.4c-4.471 0-8.004 1.969-9.752 5.139V57.5c1.748-3.168 5.281-5.135 9.752-5.135M35.199 57.5v2.404a9.25 9.25 0 0 0-.717 1.66v-2.4a9.383 9.383 0 0 1 .717-1.664M34.482 59.164v2.4a10.244 10.244 0 0 0-.375 1.631v-2.4c.082-.566.209-1.109.375-1.631M34.107 60.795v2.4a12.83 12.83 0 0 0-.066.58v-2.4c.02-.195.039-.389.066-.58"></path></g><path fill="#ffffff" d="M58.193 68.541h1.297v2.398h-1.297zM40.736 68.541h1.309v2.398h-1.309z" class="fill-4f4f4f"></path><path d="M55.051 56.83c5.438 0 9.229 3.418 9.229 8.293v10.586h-4.79v-7.168h-1.297v7.168H42.045v-7.168h-1.309v7.168h-5.012V65.123c0-4.875 3.789-8.293 9.227-8.293h10.1z" fill="#ffffff" class="fill-acacac"></path><path fill="#ffffff" d="M59.49 75.709h4.789v2.398H59.49zM42.045 75.709h16.148v2.398H42.045zM35.725 75.709h5.012v2.398h-5.012z" class="fill-4f4f4f"></path><path d="M34.852 21.893c4.4 0 7.98 3.664 7.98 8.143 0 4.506-3.58 8.156-7.98 8.156-4.391 0-7.955-3.65-7.955-8.156-.001-4.479 3.564-8.143 7.955-8.143z" fill="#ffffff" class="fill-acacac"></path><clipPath id="e"></clipPath><g clip-path="url(#e)" fill="#ffffff" class="fill-4f4f4f"><path d="M42.832 30.035v2.402c0 .408-.031.809-.086 1.199v-2.402c.055-.39.086-.791.086-1.199M42.746 31.234v2.402a8.06 8.06 0 0 1-.312 1.342v-2.4c.14-.432.246-.883.312-1.344M42.434 32.578v2.4c-.162.51-.373.998-.627 1.459v-2.4c.254-.461.464-.947.627-1.459"></path><path d="M41.807 34.037v2.4c-1.371 2.48-3.975 4.156-6.955 4.156-4.391 0-7.955-3.65-7.955-8.156v-2.402c0 4.506 3.564 8.156 7.955 8.156 2.98 0 5.584-1.673 6.955-4.154"></path></g></svg>