<svg xmlns="http://www.w3.org/2000/svg" viewBox="0 0 100 100" xml:space="preserve" enable-background="new 0 0 100 100"><path d="M51.4 27.9h26.1c.9 0 1.6.8 1.6 1.6 0 .3-.1.6-.3 1l-13 18.7c-.5.8-1.5 1-2.3.4-.2-.1-.3-.2-.4-.4l-13-18.8c-.5-.8-.3-1.7.4-2.3.3-.1.6-.2.9-.2z" fill="#ffffff" class="fill-48ede5"></path><path d="M37.2 28.1v-5h26.2v13.7h-4.2c-.4 0-.8.2-1 .6-.2.4-.2.8.1 1.1l5.3 7.7c.2.3.5.5.9.5s.7-.2.9-.5l5.3-7.7c.2-.3.3-.8.1-1.1-.2-.4-.6-.6-1-.6h-4.2V22c0-.6-.5-1.1-1.1-1.1H36.1c-.6.1-1.1.6-1.1 1.1v6.1c-7.9.6-14.1 7.1-14.1 15.2 0 5.4 2.8 10.3 7.3 13v15c0 .6.5 1.1 1.1 1.1h.5c.5 3 3.1 5.3 6.3 5.3 3.1 0 5.8-2.3 6.3-5.3h.4c.6 0 1.1-.5 1.1-1.1V56.4c4.6-2.7 7.4-7.7 7.4-13 0-8.1-6.3-14.7-14.1-15.3zm27.3 15.6L61.2 39h6.5l-3.2 4.7zM41.7 62v8.2H30.4V62h11.3zm-5.6 13.5c-1.9 0-3.6-1.3-4.1-3.1h8.1c-.4 1.7-2.1 3.1-4 3.1zm6.2-20.7c-.4.2-.6.6-.6 1v4.1h-4.1l5.7-17.7c.1-.3 0-.7-.2-1-.2-.3-.5-.4-.9-.4H29.9c-.3 0-.7.2-.9.4-.2.3-.3.6-.2 1l5.7 17.7h-4.2v-4.1c0-.4-.2-.8-.6-.9-4.2-2.3-6.8-6.7-6.8-11.5 0-7.2 5.9-13.1 13.1-13.1s13.1 5.9 13.1 13.1c0 4.7-2.6 9.1-6.8 11.4zm-6.2 2.6-4.7-14.5h9.3l-4.6 14.5z" fill="#ffffff" class="fill-333333"></path><path d="M78.1 60.1h-2.5c-.5-1.2-1.1-2.2-1.8-3.1l1.3-2.3c.1-.2.2-.5.1-.8-.1-.3-.3-.5-.5-.7L69.1 50c-.3-.1-.5-.2-.8-.1-.3.1-.5.3-.7.5l-1.2 2.2c-1.3-.2-2.5-.1-3.6 0l-1.3-2.3c-.1-.3-.4-.4-.7-.5-.3-.1-.6 0-.8.1l-5.6 3.2c-.5.3-.7.9-.4 1.5l1.3 2.3c-.8 1-1.4 2.1-1.8 3.2h-2.6c-.6 0-1.1.5-1.1 1.1v6.6c0 .6.5 1.1 1.1 1.1h2.6c.4 1.1 1 2.1 1.8 3.1L54 74.1c-.2.2-.2.5-.1.8.1.3.3.5.5.7l5.6 3.2c.3.1.6.2.8.1.3-.1.5-.3.7-.5l1.2-2.2c1.3.2 2.5.1 3.6 0l1.3 2.3c.1.3.4.4.7.5h.3c.2 0 .4 0 .5-.1l5.6-3.2c.2-.1.4-.4.5-.7.1-.3 0-.6-.1-.8l-1.3-2.3c.8-1 1.4-2.1 1.8-3.1h2.6c.6 0 1.1-.5 1.1-1.1v-6.5c-.2-.6-.6-1.1-1.2-1.1zM77 66.6h-2.3c-.5 0-.9.3-1 .8-.4 1.3-1.1 2.5-2.1 3.7-.3.4-.4.9-.1 1.3l1.2 2-3.7 2.1-1.1-2c-.2-.3-.6-.6-.9-.6h-.2c-.7.1-1.5.2-2.2.2-.7 0-1.5 0-2.1-.2-.5-.1-1 .1-1.2.5l-1.1 2-3.7-2.1 1.1-1.9c.3-.4.2-.9-.1-1.3-1-1.1-1.8-2.4-2.1-3.7-.1-.5-.6-.8-1-.8h-2.3v-4.4h2.3c.5 0 .9-.3 1-.8.4-1.3 1.1-2.5 2.1-3.7.3-.3.4-.8.1-1.3l-1.1-2 3.7-2.2 1.1 2c.2.4.7.6 1.1.5.7-.1 1.5-.2 2.2-.2.7 0 1.5 0 2.1.2.5.1 1-.1 1.2-.5l1.1-2 3.7 2.1-1.2 2c-.2.4-.2.9.1 1.3.9 1 1.6 2.2 2.2 3.7.2.4.6.7 1 .7H77v4.6z" fill="#ffffff" class="fill-333333"></path><path d="M64.5 59.2c-2.9 0-5.3 2.4-5.3 5.3s2.4 5.3 5.3 5.3 5.3-2.4 5.3-5.3c0-3-2.4-5.3-5.3-5.3zm0 8.4c-1.7 0-3.1-1.4-3.1-3.1 0-1.7 1.4-3.1 3.1-3.1 1.7 0 3.1 1.4 3.1 3.1 0 1.7-1.4 3.1-3.1 3.1z" fill="#ffffff" class="fill-333333"></path></svg>