<svg data-name="Layer 1" viewBox="0 0 512 512" xmlns="http://www.w3.org/2000/svg"><path d="M444.15 249.55H418v-149a6.46 6.46 0 0 0-6.47-6.47h-149V67.85a6.48 6.48 0 0 0-12.95 0v26.2h-149a6.46 6.46 0 0 0-6.47 6.47v149H67.85a6.48 6.48 0 0 0 0 12.95h26.2v149a6.46 6.46 0 0 0 6.47 6.47h149v26.2a6.48 6.48 0 0 0 12.95 0V418h149a6.46 6.46 0 0 0 6.47-6.47v-149h26.2a6.48 6.48 0 0 0 0-12.95ZM405 405H262.45v-23.14a6.48 6.48 0 0 0-12.95 0V405H107V262.45h23.14a6.48 6.48 0 0 0 0-12.95H107V107h142.55v23.14a6.48 6.48 0 0 0 12.95 0V107H405v142.55h-23.14a6.48 6.48 0 0 0 0 12.95H405Z" fill="#ffffff" class="fill-000000"></path><path d="M285.78 253.53a55.48 55.48 0 1 0-59.56 0 60.29 60.29 0 0 0-46.9 58.66v41.94a6.48 6.48 0 0 0 13 0v-41.94a47.37 47.37 0 0 1 47.31-47.32h32.84a47.37 47.37 0 0 1 47.31 47.32v41.94a6.48 6.48 0 0 0 12.95 0v-41.94a60.29 60.29 0 0 0-46.95-58.66Zm-72.31-46.65A42.53 42.53 0 1 1 256 249.41a42.57 42.57 0 0 1-42.53-42.53ZM183.46 138a6.47 6.47 0 0 0-6.47-6.47h-42.23a6.48 6.48 0 0 0 0 12.95H177a6.47 6.47 0 0 0 6.46-6.48ZM151.65 161h-16.89a6.48 6.48 0 0 0 0 12.95h16.89a6.48 6.48 0 1 0 0-12.95Z" fill="#ffffff" class="fill-000000"></path></svg>