<?xml version="1.0" ?><svg data-name="Layer 1" id="Layer_1" viewBox="0 0 64 64" xmlns="http://www.w3.org/2000/svg"><defs><style>
      .cls-1 {
        fill: #f5dd90;
      }

      .cls-2 {
        fill: #a3cef1;
      }

      .cls-3 {
        fill: #6096ba;
      }

      .cls-4 {
        fill: #274c77;
      }
    </style></defs><circle class="cls-3" cx="18" cy="21" r="6"/><path class="cls-4" d="M33.37,33.8l3.79-.54c.33-.05,.63-.17,.89-.34,.46,4.54,4.29,8.08,8.95,8.08,4.97,0,9-4.03,9-9s-4.03-9-9-9c-4.14,0-7.62,2.79-8.67,6.59-.39-.37-.9-.59-1.47-.59h-3.74c.4-1.9,1.19-3.67,2.28-5.2,.83-.13,1.63-.5,2.26-1.14,.64-.63,1.01-1.43,1.14-2.26,1.69-1.2,3.67-2.04,5.8-2.4,.68,.5,1.5,.8,2.4,.8s1.72-.3,2.4-.8c2.13,.36,4.11,1.2,5.8,2.4,.13,.83,.5,1.63,1.14,2.26,.63,.64,1.43,1.01,2.26,1.14,1.2,1.69,2.04,3.67,2.4,5.8-.5,.68-.8,1.5-.8,2.4s.3,1.72,.8,2.4c-.36,2.13-1.2,4.11-2.4,5.8-.83,.13-1.63,.5-2.26,1.14-.64,.63-1.01,1.43-1.14,2.26-1.69,1.2-3.67,2.04-5.8,2.4-.68-.5-1.5-.8-2.4-.8s-1.72,.3-2.4,.8c-2.13-.36-4.11-1.2-5.8-2.4-.13-.83-.5-1.63-1.14-2.26-.63-.64-1.43-1.01-2.26-1.14-1.2-1.69-2.04-3.67-2.4-5.8,.14-.19,.26-.39,.37-.6Z"/><path class="cls-1" d="M38.05,32.92c.46,4.54,4.29,8.08,8.95,8.08,4.97,0,9-4.03,9-9s-4.03-9-9-9c-4.14,0-7.62,2.79-8.67,6.59l.04,.04c.39,.39,.63,.92,.63,1.51,0,.74-.37,1.4-.95,1.78Z"/><path class="cls-3" d="M36.86,29H13.97c-2.49,0-4.84,1.15-6.35,3.13-2.01,2.63-4.23,7.22-4.57,14.8-.05,1.12,.85,2.06,1.98,2.06h.05c1.07,0,1.92-.81,2.03-1.86,.62-5.94,3.9-12.14,3.9-12.14v14h14v-12.27c0-1,.73-1.84,1.72-1.98l10.44-1.49c1.06-.15,1.84-1.05,1.84-2.12h0c0-1.18-.96-2.14-2.14-2.14Z"/><circle class="cls-2" cx="47" cy="8" r="6"/><circle class="cls-2" cx="47" cy="56" r="6"/><path d="M61.99,29.43c-.38-2.22-1.26-4.37-2.57-6.21-.16-.22-.39-.37-.66-.41-.67-.1-1.26-.4-1.71-.86-.45-.45-.75-1.04-.85-1.7-.04-.27-.19-.5-.41-.66-1.84-1.31-3.99-2.19-6.21-2.57-.27-.04-.54,.02-.76,.18-1.08,.79-2.54,.79-3.61,0-.22-.16-.49-.22-.76-.18-2.23,.38-4.37,1.27-6.21,2.57-.22,.16-.37,.39-.41,.66-.1,.67-.4,1.25-.86,1.71-.45,.45-1.04,.75-1.7,.85-.27,.04-.5,.19-.66,.41-1.02,1.43-1.77,3.08-2.23,4.78H13.97c-2.79,0-5.47,1.32-7.15,3.53-1.98,2.6-4.41,7.37-4.78,15.37-.04,.82,.25,1.59,.82,2.19,.56,.59,1.34,.92,2.2,.92,1.56,0,2.86-1.18,3.02-2.75,.27-2.62,1.1-5.32,1.9-7.47v9.22c0,.55,.45,1,1,1h14c.55,0,1-.45,1-1v-12.27c0-.49,.37-.92,.86-.99l5.25-.75c.41,2.07,1.25,4.06,2.47,5.78,.16,.22,.39,.37,.66,.41,.67,.1,1.26,.4,1.71,.86,.45,.45,.75,1.04,.85,1.7,.04,.27,.19,.5,.41,.66,1.84,1.31,3.99,2.19,6.21,2.57,.27,.04,.54-.02,.76-.18,1.08-.79,2.54-.79,3.61,0,.17,.13,.38,.19,.59,.19,.06,0,.11,0,.17-.01,2.23-.38,4.37-1.27,6.21-2.57,.22-.16,.37-.39,.41-.66,.1-.67,.4-1.25,.86-1.71,.45-.45,1.04-.75,1.7-.85,.27-.04,.5-.19,.66-.41,1.31-1.84,2.19-3.99,2.57-6.21,.05-.27-.02-.54-.18-.76-.4-.54-.61-1.17-.61-1.81s.21-1.27,.61-1.81c.16-.22,.23-.49,.18-.76Zm-35.41,4.33c-1.47,.21-2.58,1.49-2.58,2.97v11.27H12v-13c0-.46-.31-.86-.76-.97-.45-.11-.91,.1-1.12,.5-.14,.26-3.37,6.44-4.01,12.5-.06,.56-.49,.96-1.09,.96-.27,0-.52-.11-.71-.3-.19-.19-.28-.45-.27-.71,.34-7.48,2.56-11.88,4.37-14.24,1.31-1.71,3.38-2.74,5.56-2.74h22.89c.63,0,1.14,.51,1.14,1.14,0,.56-.42,1.05-.98,1.13l-10.44,1.49Zm33.37,.85c-.33,1.66-1,3.27-1.94,4.68-.91,.22-1.73,.68-2.37,1.33-.66,.65-1.12,1.46-1.34,2.38-1.41,.94-3.02,1.6-4.68,1.94-1.59-.97-3.64-.97-5.24,0-1.67-.33-3.27-1-4.68-1.94-.22-.91-.68-1.73-1.33-2.37-.65-.66-1.46-1.12-2.38-1.34-.92-1.39-1.57-2.96-1.91-4.59l3.19-.46c1.03,4.49,5.01,7.74,9.73,7.74,5.51,0,10-4.49,10-10s-4.49-10-10-10c-4.06,0-7.69,2.48-9.22,6.15-.29-.09-.6-.15-.92-.15h-2.44c.37-1.17,.9-2.29,1.58-3.3,.91-.22,1.73-.68,2.37-1.33,.66-.65,1.12-1.46,1.34-2.38,1.41-.94,3.02-1.6,4.68-1.94,1.59,.97,3.64,.97,5.24,0,1.67,.33,3.27,1,4.68,1.94,.22,.91,.68,1.73,1.33,2.37,.65,.66,1.46,1.12,2.38,1.34,.94,1.41,1.6,3.02,1.94,4.68-.49,.8-.74,1.69-.74,2.62s.26,1.82,.74,2.62Zm-20.48-5.23c1.1-3.19,4.12-5.39,7.53-5.39,4.41,0,8,3.59,8,8s-3.59,8-8,8c-3.95,0-7.26-2.85-7.88-6.69,.54-.57,.88-1.33,.88-2.16,0-.65-.2-1.25-.53-1.75Z"/><path d="M25,21c0-3.86-3.14-7-7-7s-7,3.14-7,7,3.14,7,7,7,7-3.14,7-7Zm-7,5c-2.76,0-5-2.24-5-5s2.24-5,5-5,5,2.24,5,5-2.24,5-5,5Z"/><path d="M54,8c0-3.86-3.14-7-7-7s-7,3.14-7,7,3.14,7,7,7,7-3.14,7-7Zm-12,0c0-2.76,2.24-5,5-5s5,2.24,5,5-2.24,5-5,5-5-2.24-5-5Z"/><path d="M47,49c-3.86,0-7,3.14-7,7s3.14,7,7,7,7-3.14,7-7-3.14-7-7-7Zm0,12c-2.76,0-5-2.24-5-5s2.24-5,5-5,5,2.24,5,5-2.24,5-5,5Z"/></svg>