<?xml version="1.0" ?><svg height="64" viewBox="0 0 64 64" width="64" xmlns="http://www.w3.org/2000/svg"><defs><style>
      .cls-1 {
        fill: #42b9cc;
      }
    </style></defs><title/><g data-name="web development-website optimization-settings" id="web_development-website_optimization-settings"><rect class="cls-1" height="10" width="54" x="3" y="9"/><polygon class="cls-1" points="50 37 50 39 49 40 47 38 44 41 46 43 45 44 43 44 43 48 45 48 46 49 45 51 47 54 49 52 50 53 50 55 54 55 54 53 55 52 57 54 60 51 58 49 59 48 61 48 61 44 59 44 58 43 59 41 57 38 55 40 54 39 54 37 50 37"/><g><path d="M39,46H4V20H56V34a1,1,0,0,0,2,0V9a1,1,0,0,0-1-1H3A1,1,0,0,0,2,9V47a1,1,0,0,0,1,1H39a1,1,0,0,0,0-2ZM56,10v8H4V10Z"/><path d="M52,42a4,4,0,1,0,4,4A4,4,0,0,0,52,42Zm0,6a2,2,0,1,1,2-2A2,2,0,0,1,52,48Z"/><path d="M61,43H59.418c-.017-.042-.034-.083-.051-.123l1.12-1.12a1,1,0,0,0,0-1.414l-2.83-2.83a1,1,0,0,0-1.414,0l-1.12,1.12L55,38.582V37a1,1,0,0,0-1-1H50a1,1,0,0,0-1,1v1.582l-.123.051-1.12-1.12a1,1,0,0,0-1.414,0l-2.83,2.83a1,1,0,0,0,0,1.414l1.12,1.12c-.017.041-.034.082-.051.123H43a1,1,0,0,0-1,1v4a1,1,0,0,0,1,1h1.582c.017.042.034.083.051.123l-1.12,1.12a1,1,0,0,0,0,1.414l2.83,2.83a1,1,0,0,0,1.414,0l1.12-1.12.123.051V55a1,1,0,0,0,1,1h4a1,1,0,0,0,1-1V53.418l.123-.051,1.12,1.12a1,1,0,0,0,1.414,0l2.83-2.83a1,1,0,0,0,0-1.414l-1.12-1.12c.017-.041.034-.082.051-.123H61a1,1,0,0,0,1-1V44A1,1,0,0,0,61,43Zm-1,4H58.71a1,1,0,0,0-.957.708,6.081,6.081,0,0,1-.47,1.141,1,1,0,0,0,.17,1.188l.913.913L56.95,52.366l-.913-.913a1,1,0,0,0-1.187-.17,6.081,6.081,0,0,1-1.141.47A1,1,0,0,0,53,52.71V54H51V52.71a1,1,0,0,0-.708-.957,6.081,6.081,0,0,1-1.141-.47,1,1,0,0,0-1.187.17l-.913.913L45.634,50.95l.913-.913a1,1,0,0,0,.17-1.187,6.081,6.081,0,0,1-.47-1.141A1,1,0,0,0,45.29,47H44V45h1.29a1,1,0,0,0,.957-.708,6.081,6.081,0,0,1,.47-1.141,1,1,0,0,0-.17-1.187l-.913-.913,1.416-1.416.913.913a1,1,0,0,0,1.188.17,6.081,6.081,0,0,1,1.141-.47A1,1,0,0,0,51,39.29V38h2v1.29a1,1,0,0,0,.708.957,6.081,6.081,0,0,1,1.141.47,1,1,0,0,0,1.188-.17l.913-.913,1.416,1.416-.913.913a1,1,0,0,0-.17,1.188,6.081,6.081,0,0,1,.47,1.141A1,1,0,0,0,58.71,45H60Z"/><circle cx="8" cy="14" r="2"/><circle cx="14" cy="14" r="2"/><circle cx="20" cy="14" r="2"/><path d="M21,33a9,9,0,1,0,9-9A9.01,9.01,0,0,0,21,33Zm10.974-1H28.026c.188-3.9,1.438-6,1.974-6S31.786,28.1,31.974,32ZM30,40c-.536,0-1.786-2.1-1.974-6h3.948C31.786,37.9,30.536,40,30,40ZM27.1,26.638A16.167,16.167,0,0,0,26.025,32H23.08A7.009,7.009,0,0,1,27.1,26.638ZM23.08,34h2.946A16.167,16.167,0,0,0,27.1,39.362,7.009,7.009,0,0,1,23.08,34ZM32.9,39.362A16.167,16.167,0,0,0,33.975,34H36.92A7.009,7.009,0,0,1,32.9,39.362ZM36.92,32H33.975A16.167,16.167,0,0,0,32.9,26.638,7.009,7.009,0,0,1,36.92,32Z"/><path d="M50,17h4a1,1,0,0,0,1-1V12a1,1,0,0,0-1-1H50a1,1,0,0,0-1,1v4A1,1,0,0,0,50,17Zm1-4h2v2H51Z"/></g></g></svg>