<svg viewBox="0 0 16.933 16.933" xmlns="http://www.w3.org/2000/svg"><path d="M7.152 1.133c-.065.147-.106.258-.215.383-.11.125-.296.271-.676.423-.379.153-.618.177-.785.163-.167-.015-.274-.069-.424-.13-.15-.06-.35-.128-.607-.048-.238.074-.475.244-.8.562-.327.318-.504.55-.583.787-.084.252-.02.458.039.608.059.15.111.257.123.422.012.164-.018.398-.177.771-.16.373-.309.558-.438.666-.129.109-.246.148-.398.217-.186.084-.349.193-.461.422-.082.167-.128.374-.149.656C.848 7.31.53 7.934.53 8.467v2.162c0 .432.21 1.035.408 1.595.1.28.206.567.277.794.072.226.109.412.109.478v.262a.265.265 0 0 0-.265.265v2.116c0 .146.118.265.264.265h4.235c.146 0 .264-.12.264-.265v-2.116a.26.26 0 0 0-.223-.261c.033-.064.075-.129.13-.223.123-.212.24-.447.305-.792.071.022.145.048.228.081.38.152.566.297.676.422.11.125.15.237.215.385.065.147.154.33.404.455.213.106.49.147.91.147.42 0 .698-.04.91-.147.25-.124.34-.308.404-.455.066-.148.106-.26.215-.385.11-.125.296-.27.676-.422.083-.033.157-.059.229-.081.065.345.181.58.304.792.055.094.097.16.13.223a.26.26 0 0 0-.222.261v2.116c0 .146.117.265.263.265h4.235c.147 0 .265-.12.264-.265v-2.116a.265.265 0 0 0-.264-.265v-.262c0-.066.037-.252.108-.478.071-.227.178-.515.277-.794.198-.56.41-1.163.41-1.595V8.467c0-.533-.321-1.156-1.074-1.432-.02-.282-.066-.489-.148-.656-.113-.23-.276-.337-.461-.422-.153-.069-.27-.108-.399-.217-.129-.108-.278-.293-.437-.666-.16-.373-.19-.607-.178-.771.012-.165.064-.272.123-.422.06-.15.123-.356.039-.608-.079-.236-.256-.469-.582-.787-.326-.318-.562-.488-.8-.562-.258-.08-.458-.012-.608.049-.15.06-.257.114-.424.129-.167.014-.406-.01-.785-.163-.38-.152-.566-.298-.676-.423-.109-.125-.15-.236-.214-.383C9.715.985 9.62.797 9.376.676c-.202-.1-.488-.146-.91-.147-.422 0-.708.046-.91.147-.243.121-.339.31-.404.457zm6.341 9.45c0 .045-.023.1-.105.2-.083.1-.214.227-.356.387-.224.253-.466.593-.559 1.098-.115.071-.18.082-.226.082-.058-.001-.131-.03-.267-.086-.33-.14-.742-.234-1.506.072-.433.174-.702.367-.877.567-.175.199-.246.396-.3.517-.053.12-.08.159-.157.197-.088.044-.294.09-.674.091-.38 0-.585-.047-.673-.09-.077-.04-.105-.077-.159-.198-.053-.12-.124-.318-.299-.517-.174-.2-.443-.393-.877-.567-.764-.306-1.176-.212-1.505-.072-.137.056-.21.085-.268.086-.046 0-.11-.01-.226-.082-.092-.505-.335-.845-.56-1.098-.14-.16-.272-.287-.355-.387-.082-.1-.105-.155-.105-.2V9.44c-.023-.746-.403-1.25-.842-1.427a.765.765 0 0 0-.435-.061 3.09 3.09 0 0 1-.045-.566c.004-.438.056-.669.107-.773.041-.084.085-.118.205-.173.12-.054.317-.124.52-.295.203-.17.401-.435.584-.863.183-.427.237-.752.219-1.016-.019-.264-.11-.454-.159-.577-.048-.123-.053-.174-.029-.246.032-.097.15-.285.45-.576.298-.292.488-.405.587-.436.087-.023.13-.017.252.033.124.05.313.143.578.166.265.023.594-.025 1.027-.2.434-.173.703-.365.877-.564.175-.2.246-.398.3-.52.039-.088.065-.148.158-.195.1-.05.295-.09.673-.091.379 0 .574.042.674.091.092.047.119.107.158.196.053.12.124.32.299.519.175.2.444.391.877.565.433.174.763.222 1.027.199.265-.023.455-.116.578-.166.123-.05.165-.056.252-.033.1.03.29.144.588.435.3.292.417.48.45.577.024.072.018.123-.03.246-.048.122-.14.313-.158.577-.019.264.036.589.218 1.016.183.428.382.693.584.863.203.17.4.241.52.295.12.055.164.089.205.172.052.105.104.336.107.774a3.09 3.09 0 0 1-.045.565.748.748 0 0 0-.095-.008.902.902 0 0 0-.34.07c-.439.178-.82.68-.842 1.432zM5.261 5.07a1.057 1.057 0 0 0-.63 1.529 1.84 1.84 0 0 0-.927 1.605v.264c0 .59.476 1.058 1.058 1.058h.35a3.969 3.969 0 0 0 3.354 1.852c1.366 0 2.63-.703 3.355-1.852h.35c.581 0 1.057-.467 1.057-1.058v-.264c0-.69-.37-1.287-.927-1.605a1.057 1.057 0 0 0-.63-1.528 3.957 3.957 0 0 0-3.205-1.63c-1.269 0-2.459.603-3.205 1.63zm5.748.025a1.057 1.057 0 0 0-.558 1.504 1.82 1.82 0 0 0-.507.428 2.063 2.063 0 0 0-.472-.347 1.323 1.323 0 1 0-2.012 0c-.175.095-.33.209-.471.347a1.82 1.82 0 0 0-.507-.428 1.057 1.057 0 0 0-.559-1.504 3.435 3.435 0 0 1 5.086 0zM7.54 9.525c-.37 0-.66-.3-.66-.666V8.55a1.59 1.59 0 0 1 1.074-1.51c.156.065.332.104.513.104.18 0 .358-.04.514-.104a1.59 1.59 0 0 1 1.073 1.51v.309c0 .366-.29.666-.66.666zm-1.982-2.38c.196 0 .382-.057.54-.15.227.101.425.27.554.461-.196.33-.301.695-.301 1.094v.309c0 .046.003.09.008.135-.005 0-.003.002-.008.002H4.762a.527.527 0 0 1-.529-.53v-.263c0-.542.32-1.003.783-1.209.158.095.343.15.54.15zm7.142 1.058v.264c0 .289-.23.529-.529.529h-1.588c-.004 0-.003-.002-.008-.002a1.2 1.2 0 0 0 .008-.135V8.55c0-.399-.105-.764-.3-1.094.129-.191.327-.36.554-.461a1.056 1.056 0 0 0 1.081 0c.463.205.782.666.782 1.208zm-11.006.045a.791.791 0 0 0-.106.406v1.932c0 .353.53.353.53 0V8.654c0-.102.028-.145.062-.164.034-.018.113-.031.22.012.212.086.493.378.51.955v1.127c0 .22.112.395.227.535.116.14.247.265.37.403.245.276.46.608.462 1.18.001.294.363.341.484.143.081.024.165.035.241.034.197-.003.341-.077.461-.127a.996.996 0 0 1 .356-.086 1.867 1.867 0 0 1-.24.608c-.083.143-.186.296-.24.484H1.852v-.262c0-.198-.076-.453-.135-.645-.076-.243-.179-.517-.277-.794-.196-.555-.382-1.113-.382-1.428V8.467c0-.25.125-.621.535-.849.013.261.044.467.1.63zm14.182.219v2.162c0 .315-.187.873-.383 1.428-.098.277-.2.55-.277.794-.059.192-.135.447-.135.645v.262h-3.178c-.054-.189-.157-.341-.24-.484a1.867 1.867 0 0 1-.24-.608.996.996 0 0 1 .356.086c.12.05.264.124.461.127.077 0 .16-.01.241-.034.121.198.483.15.484-.144.001-.571.218-.903.463-1.18.122-.137.254-.262.37-.402.115-.14.225-.315.225-.535V9.457c.018-.577.3-.869.512-.955.106-.043.185-.03.22-.012.033.019.061.062.061.164v1.932c0 .353.53.353.53 0V8.654a.791.791 0 0 0-.106-.406 2.32 2.32 0 0 0 .1-.63c.41.228.536.6.536.849zM5.755 9.525h.595a.994.994 0 0 0 .19-.017c.212.33.58.546 1 .546h1.852c.42 0 .788-.215 1-.546.062.012.125.017.19.017h.595a3.437 3.437 0 0 1-5.421 0Z" style="line-height:normal;font-variant-ligatures:normal;font-variant-position:normal;font-variant-caps:normal;font-variant-numeric:normal;font-variant-alternates:normal;font-feature-settings:normal;text-indent:0;text-align:start;text-decoration-line:none;text-decoration-style:solid;text-decoration-color:#000;text-transform:none;text-orientation:mixed;white-space:normal;shape-padding:0;isolation:auto;mix-blend-mode:normal;solid-color:#000;solid-opacity:1" color="#000000" font-style="normal" font-variant="normal" font-weight="400" font-stretch="normal" font-size="medium" font-family="sans-serif" text-decoration="none" letter-spacing="normal" word-spacing="normal" writing-mode="lr-tb" direction="ltr" dominant-baseline="auto" baseline-shift="baseline" text-anchor="start" clip-rule="nonzero" display="inline" overflow="visible" visibility="visible" opacity="1" color-interpolation="sRGB" color-interpolation-filters="linearRGB" vector-effect="none" fill="#ffffff" fill-opacity="1" fill-rule="nonzero" stroke="none" stroke-width=".529167" stroke-linecap="butt" stroke-linejoin="round" stroke-miterlimit="4" stroke-dasharray="none" stroke-dashoffset="0" stroke-opacity="1" color-rendering="auto" image-rendering="auto" shape-rendering="auto" text-rendering="auto" enable-background="accumulate" class="fill-000000"></path></svg>