<svg viewBox="0 0 512 512" xmlns="http://www.w3.org/2000/svg"><path d="M256 417.103a9.895 9.895 0 0 0-9.897 9.897v54a9.896 9.896 0 0 0 19.793 0v-54a9.895 9.895 0 0 0-9.896-9.897ZM427 345.103a9.895 9.895 0 0 0-9.897 9.897v62.103H355a9.896 9.896 0 0 0 0 19.793h72a9.895 9.895 0 0 0 9.897-9.896v-72a9.895 9.895 0 0 0-9.897-9.897ZM157 417.103H94.897V355a9.896 9.896 0 0 0-19.794 0v72A9.895 9.895 0 0 0 85 436.897h72a9.896 9.896 0 0 0 0-19.793ZM481 246.103h-54a9.896 9.896 0 0 0 0 19.793h54a9.896 9.896 0 0 0 0-19.793ZM94.897 256A9.895 9.895 0 0 0 85 246.103H31a9.896 9.896 0 0 0 0 19.793h54A9.895 9.895 0 0 0 94.897 256ZM355 94.897h62.103V157a9.896 9.896 0 0 0 19.793 0V85A9.895 9.895 0 0 0 427 75.103h-72a9.896 9.896 0 0 0 0 19.794ZM85 166.897A9.895 9.895 0 0 0 94.897 157V94.897H157a9.896 9.896 0 0 0 0-19.794H85A9.895 9.895 0 0 0 75.103 85v72A9.895 9.895 0 0 0 85 166.897ZM256 94.897A9.895 9.895 0 0 0 265.897 85V31a9.896 9.896 0 0 0-19.793 0v54A9.895 9.895 0 0 0 256 94.897ZM350.36 319.738a9.894 9.894 0 0 0 12.937-5.361l9.852-23.783a9.903 9.903 0 0 0-18.298-7.576l-1.134 2.742-22.57-9.352c-.229-.093-.466-.06-.695-.135a76.739 76.739 0 0 0 .01-40.545c.228-.075.46-.044.685-.136l22.566-9.345 1.138 2.744a9.903 9.903 0 1 0 18.299-7.576l-9.853-23.792a9.903 9.903 0 0 0-18.299 7.576l1.139 2.749-22.567 9.345c-.224.093-.37.283-.585.391a76.751 76.751 0 0 0-28.647-28.646c.11-.215.276-.382.369-.608l9.343-22.566 2.75 1.138a9.903 9.903 0 0 0 7.577-18.299l-23.792-9.852a9.903 9.903 0 1 0-7.576 18.298l2.742 1.136-9.343 22.569c-.097.228-.062.465-.136.696a76.763 76.763 0 0 0-40.549-.012c-.074-.227-.04-.46-.131-.684l-9.352-22.569 2.742-1.136a9.903 9.903 0 1 0-7.576-18.298l-23.783 9.852a9.903 9.903 0 1 0 7.576 18.299l2.742-1.136 9.352 22.564c.092.221.255.386.36.597a76.737 76.737 0 0 0-28.635 28.662c-.22-.11-.36-.302-.589-.396l-22.565-9.343 1.138-2.751a9.903 9.903 0 0 0-18.299-7.576l-4.922 11.89c-.004.003-.008.006-.008.01v.011l-4.922 11.881a9.903 9.903 0 1 0 18.298 7.576l1.134-2.742 22.57 9.343c.224.092.462.061.69.138a76.744 76.744 0 0 0-.009 40.547c-.224.074-.457.04-.68.131l-22.57 9.35-1.135-2.74a9.903 9.903 0 1 0-18.298 7.576l4.917 11.871c.005.007 0 .013.005.02l.013.023 4.917 11.869a9.903 9.903 0 0 0 18.299-7.576l-1.138-2.747 22.566-9.347c.224-.092.365-.281.576-.388a76.787 76.787 0 0 0 28.683 28.667c-.11.215-.303.358-.396.584l-9.347 22.566-2.746-1.138a9.903 9.903 0 0 0-7.577 18.299l11.874 4.92c.01.002.01.008.018.01a.122.122 0 0 1 .022.005l11.87 4.917a9.903 9.903 0 1 0 7.576-18.298l-2.738-1.135 9.347-22.57c.093-.226.062-.46.137-.69a76.731 76.731 0 0 0 40.548.01c.075.225.04.458.132.68l9.343 22.568-2.743 1.137a9.903 9.903 0 1 0 7.577 18.298l11.878-4.92.013-.002.009-.006 11.892-4.924a9.903 9.903 0 0 0-7.577-18.3l-2.75 1.14-9.344-22.567c-.092-.224-.281-.365-.387-.58a76.773 76.773 0 0 0 28.661-28.68c.216.109.36.302.59.397l22.565 9.349-1.138 2.745a9.902 9.902 0 0 0 5.361 12.937ZM246.102 218.832a9.896 9.896 0 0 1 19.793 0v36.308a9.896 9.896 0 1 1-19.793 0ZM256 303.063a11.25 11.25 0 1 1 11.25-11.25 11.25 11.25 0 0 1-11.25 11.25Z" fill="#1da1f2" class="fill-000000"></path></svg>