<?xml version="1.0" ?><svg viewBox="0 0 64 64" xmlns="http://www.w3.org/2000/svg"><g data-name="Health Education-Article-Computer-Knowledge-Blog" id="Health_Education-Article-Computer-Knowledge-Blog"><path d="M57,41v4a4,4,0,0,1-4,4H11a4,4,0,0,1-4-4V41Z" style="fill:#bddbff"/><path d="M52,5a8.981,8.981,0,0,0-8.48,6A8.8,8.8,0,0,0,43,14a8.926,8.926,0,0,0,1.16,4.41L42,22l4.65-.77A9,9,0,1,0,52,5Z" style="fill:#bddbff"/><path d="M43.41,57.59A1.955,1.955,0,0,1,44,59a2.006,2.006,0,0,1-2,2H22a2.015,2.015,0,0,1-2-2,2.006,2.006,0,0,1,2-2H42A1.955,1.955,0,0,1,43.41,57.59Z" style="fill:#bddbff"/><polygon points="39 49 40 57 24 57 25 49 39 49" style="fill:#bddbff"/><path d="M18,3H5A2.006,2.006,0,0,0,3,5v8a2.006,2.006,0,0,0,2,2h7l4,4V15h2a2.006,2.006,0,0,0,2-2V5A2.006,2.006,0,0,0,18,3Z" style="fill:#bddbff"/><circle cx="18" cy="26" r="1" style="fill:#bddbff"/><circle cx="28" cy="26" r="5" style="fill:#bddbff"/><path d="M56,40H8V18H6V45a5.006,5.006,0,0,0,5,5H23.867l-.75,6H22a3,3,0,0,0,0,6H42a3,3,0,0,0,0-6H40.883l-.75-6H53a5.006,5.006,0,0,0,5-5V25H56ZM43,59a1,1,0,0,1-1,1H22a1,1,0,0,1,0-2H42A1,1,0,0,1,43,59Zm-4.133-3H25.133l.75-6H38.117ZM53,48H11a3,3,0,0,1-3-3V42H56v3A3,3,0,0,1,53,48Z" style="fill:#3d9ae2"/><rect height="2" style="fill:#3d9ae2" width="17" x="23" y="10"/><rect height="2" style="fill:#3d9ae2" width="2" x="50" y="44"/><path d="M52,4a9.994,9.994,0,0,0-8.99,14.372l-1.867,3.113a1,1,0,0,0,1.021,1.5l4.243-.708A9.9,9.9,0,0,0,52,24,10,10,0,0,0,52,4Zm0,18a7.937,7.937,0,0,1-4.755-1.578,1,1,0,0,0-.6-.2,1.016,1.016,0,0,0-.164.013l-2.513.419,1.042-1.737a1,1,0,0,0,.013-1.005A8,8,0,1,1,52,22Z" style="fill:#3d9ae2"/><polygon points="53 10 51 10 51 13 48 13 48 15 51 15 51 18 53 18 53 15 56 15 56 13 53 13 53 10" style="fill:#3d9ae2"/><path d="M15.293,19.707A1,1,0,0,0,16,20a.987.987,0,0,0,.383-.076A1,1,0,0,0,17,19V16h1a3,3,0,0,0,3-3V5a3,3,0,0,0-3-3H5A3,3,0,0,0,2,5v8a3,3,0,0,0,3,3h6.586ZM4,13V5A1,1,0,0,1,5,4H18a1,1,0,0,1,1,1v8a1,1,0,0,1-1,1H16a1,1,0,0,0-1,1v1.586l-2.293-2.293A1,1,0,0,0,12,14H5A1,1,0,0,1,4,13Z" style="fill:#3d9ae2"/><rect height="2" style="fill:#3d9ae2" width="9" x="7" y="6"/><rect height="2" style="fill:#3d9ae2" width="9" x="7" y="10"/><rect height="2" style="fill:#3d9ae2" width="2" x="27" y="25"/><path d="M19.514,17.515a2,2,0,0,0,1.415,3.413,2.024,2.024,0,0,0,.511-.075l1.675,1.676A5.964,5.964,0,0,0,22.09,25H19.722a2,2,0,1,0,0,2H22.09a5.964,5.964,0,0,0,1.025,2.471l-1.676,1.676a2,2,0,0,0-1.924.51h0a2,2,0,1,0,3.339.9l1.676-1.676A5.964,5.964,0,0,0,27,31.91v2.368a2,2,0,1,0,2,0V31.91a5.964,5.964,0,0,0,2.471-1.025l1.676,1.676a2,2,0,1,0,1.414-1.414l-1.676-1.676A5.964,5.964,0,0,0,33.91,27h2.368a2,2,0,1,0,0-2H33.91a5.964,5.964,0,0,0-1.025-2.471l1.676-1.676a2.016,2.016,0,0,0,.51.075,2.005,2.005,0,1,0-1.924-1.489l-1.676,1.676A5.964,5.964,0,0,0,29,20.09V17.722a2,2,0,1,0-2,0V20.09a5.964,5.964,0,0,0-2.471,1.025l-1.676-1.676a1.993,1.993,0,0,0-.509-1.924h0A2,2,0,0,0,19.514,17.515ZM28,22a3.947,3.947,0,0,1,2.019.567l-.726.726,1.414,1.414.726-.726a3.878,3.878,0,0,1,0,4.038l-.726-.726-1.414,1.414.726.726a3.878,3.878,0,0,1-4.038,0l.726-.726-1.414-1.414-.726.726a3.878,3.878,0,0,1,0-4.038l.726.726,1.414-1.414-.726-.726A3.947,3.947,0,0,1,28,22Z" style="fill:#3d9ae2"/><rect height="2" style="fill:#3d9ae2" width="2" x="42" y="28"/><rect height="2" style="fill:#3d9ae2" width="6" x="46" y="28"/><rect height="2" style="fill:#3d9ae2" width="10" x="42" y="32"/></g></svg>