<svg viewBox="0 0 512 512" xml:space="preserve" xmlns="http://www.w3.org/2000/svg" enable-background="new 0 0 512 512"><path d="M296.41 273.293c0-7.158-5.86-12.981-13.064-12.981h-63.159c-7.482 0-13.571 6.048-13.571 13.481v30.771h89.794v-31.271z" fill="#ffffff" class="fill-000000"></path><path d="M256.004 344.486c17.887 0 35.428-.948 52.322-2.787 8.766-12.282 17.16-25.307 25.076-38.951a486.855 486.855 0 0 0 23.377-45.653c-6.903-15.531-14.883-31.218-23.89-46.747-8.349-14.392-17.225-28.099-26.507-40.979-16.329-1.719-33.227-2.613-50.379-2.613-17.865 0-35.386.945-52.261 2.779-9.763 13.387-19.087 27.697-27.826 42.762-8.915 15.371-16.868 31.026-23.758 46.603a490.044 490.044 0 0 0 22.026 42.608c8.083 13.936 16.664 27.228 25.626 39.752 18.081 2.125 36.938 3.226 56.194 3.226zm-4.495-165.026c17.398 0 31.551 14.094 31.551 31.417 0 17.324-14.153 31.417-31.551 31.417-17.392 0-31.542-14.093-31.542-31.417 0-17.323 14.15-31.417 31.542-31.417zm-54.264 129.789v-35.456c0-12.602 10.292-22.853 22.942-22.853h63.159c12.371 0 22.436 10.027 22.436 22.353v35.956a4.686 4.686 0 0 1-4.686 4.686H201.93a4.686 4.686 0 0 1-4.685-4.686zM211.377 159.369a497.98 497.98 0 0 1 44.627-1.985c14.519 0 28.867.637 42.867 1.859-13.766-18.025-28.316-34.217-43.288-48.113-15.276 13.822-30.143 30.065-44.206 48.239zM318.873 170.863a501.71 501.71 0 0 1 22.123 34.782 498.542 498.542 0 0 1 20.775 39.854c8.708-21.063 15.324-41.681 19.652-61.048-18.988-6.005-40.13-10.59-62.55-13.588zM361.75 268.707a494.83 494.83 0 0 1-20.242 38.742 497.603 497.603 0 0 1-20.703 32.708c21.404-2.946 41.594-7.361 59.914-13.126-4.315-18.569-10.707-38.248-18.969-58.324z" fill="#ffffff" class="fill-000000"></path><path d="M251.509 232.923c12.231 0 22.18-9.89 22.18-22.045 0-12.157-9.949-22.046-22.18-22.046-12.225 0-22.171 9.89-22.171 22.046 0 12.155 9.946 22.045 22.171 22.045zM191.158 171.089c-23.22 3.198-45.01 8.124-64.533 14.626 4.64 19.776 11.553 40.575 20.432 61.579 6.17-13.221 13.103-26.508 20.754-39.7a497.051 497.051 0 0 1 23.347-36.505zM435.612 215.182c.467 0 .93-.026 1.39-.073.068-.007.133-.023.201-.031.391-.047.778-.104 1.162-.185.083-.017.162-.044.245-.063.358-.083.716-.174 1.065-.287.115-.037.226-.083.34-.124.306-.107.61-.219.907-.348.151-.066.298-.143.447-.214.245-.118.489-.237.728-.37.18-.101.355-.211.531-.321.191-.119.384-.239.57-.368.195-.136.385-.28.571-.425a11.63 11.63 0 0 0 1.024-.881c.133-.126.262-.255.39-.388 2.285-2.37 3.698-5.577 3.698-9.111 0-7.273-5.953-13.191-13.271-13.191a13.292 13.292 0 0 0-12.15 7.89c-.101.227-.187.458-.274.688-.074.197-.152.391-.218.591-.069.216-.122.436-.181.655-.059.218-.124.434-.171.656-.05.236-.079.477-.116.716-.031.207-.073.411-.096.622-.047.453-.072.911-.072 1.374.002 7.271 5.958 13.188 13.28 13.188zM311.461 160.512c25.794 2.953 50.155 7.941 71.873 14.73 5.164-27.261 5.518-51.646.415-70.693-4.075-15.208-11.411-25.948-21.808-31.923-6.145-3.53-13.296-5.319-21.258-5.319-21.773 0-49.423 13.355-78.062 37.652 16.682 15.598 33.233 34.354 48.84 55.553zM187.234 339.594a502.568 502.568 0 0 1-21.155-33.384 501.604 501.604 0 0 1-18.857-35.728c-7.817 19.092-13.966 37.921-18.238 55.82 17.799 5.761 37.424 10.226 58.25 13.292z" fill="#ffffff" class="fill-000000"></path><path d="M448.943 220.225c-.102.074-.211.138-.315.21-.302.212-.608.417-.921.615-.109.068-.215.141-.325.207-.433.264-.877.509-1.327.743-.09.047-.18.092-.27.137a22.4 22.4 0 0 1-3.107 1.284l-.051.017c-.546.178-1.1.335-1.664.472l-.073.017a22.495 22.495 0 0 1-3.647.56c-.539.039-1.082.065-1.631.065-12.489 0-22.649-10.12-22.649-22.56 0-.407.012-.812.033-1.213.01-.172.027-.342.04-.514.017-.225.032-.449.056-.672.023-.214.053-.427.082-.64.023-.176.047-.353.074-.528.037-.228.08-.454.123-.68.031-.16.061-.32.096-.479.021-.104.039-.209.063-.313-7.231-3.456-15.016-6.639-23.258-9.545-5.008 22.135-12.857 45.745-23.277 69.705 9.949 22.99 17.538 45.642 22.545 66.988 5.892-2.065 11.57-4.272 17-6.629 38.889-16.882 60.307-38.849 60.307-61.854-.001-12.221-6.021-24.113-17.904-35.393zM121.299 125.801c12.484 0 22.642 10.121 22.642 22.561 0 .694-.037 1.381-.098 2.06-.004.05-.007.102-.012.152a22.828 22.828 0 0 1-.276 1.916c-.015.077-.026.155-.042.232-.12.611-.269 1.212-.438 1.806-.025.088-.049.177-.076.265a22.83 22.83 0 0 1-.697 1.983 21.744 21.744 0 0 1-.741 1.638c-.041.083-.084.165-.126.246a22.444 22.444 0 0 1-.892 1.571c-.042.068-.087.134-.13.201a22.656 22.656 0 0 1-1.05 1.514c-.034.045-.07.087-.104.131-.39.506-.798.999-1.229 1.47l-.029.03c-.437.476-.895.932-1.371 1.369l-.07.067c-.464.422-.948.823-1.447 1.207l-.156.122c-.486.367-.988.713-1.503 1.041l-.212.136a23 23 0 0 1-3.463 1.758c-.088.036-.176.069-.264.104-.566.221-1.142.42-1.729.595-.083.026-.167.048-.25.072a22.24 22.24 0 0 1-1.828.445c-.069.014-.138.023-.207.036-.641.121-1.289.219-1.948.284l-.029.005c.34 1.887.71 3.789 1.096 5.698 22.29-7.336 47.366-12.684 74.068-15.828 15.978-21.448 32.917-40.309 49.939-55.82-.352-.307-.703-.62-1.054-.924-29.579-25.584-58.236-39.675-80.693-39.675-8.026 0-15.236 1.806-21.431 5.364-19.069 10.962-24.536 35.54-25.462 56.209l.067-.002c.412-.025.827-.039 1.245-.039zM194.671 350.063c-24.283-3.08-47.16-7.99-67.732-14.578-2.958 14.357-4.645 28.019-4.919 40.599.079.003.156.01.234.013.178.008.357.02.534.03.202.014.403.027.603.046a24.26 24.26 0 0 1 2.756.426 25.06 25.06 0 0 1 1.08.264c.182.05.362.101.542.154a23.1 23.1 0 0 1 1.555.527c.171.064.342.132.511.201a18.42 18.42 0 0 1 .997.434c.166.078.331.155.493.236a22.185 22.185 0 0 1 3.231 1.951c.148.105.294.213.439.322.142.107.28.218.419.328a19.834 19.834 0 0 1 .824.69c.136.119.273.24.407.363.13.119.256.242.383.363.131.127.262.253.39.383a46.491 46.491 0 0 1 .738.781c.117.131.231.265.346.398.119.139.238.275.354.416.112.139.221.278.33.419.111.143.222.284.33.429.107.144.209.291.312.438.104.147.209.293.309.442.101.149.197.304.294.456.095.15.192.3.284.452.095.157.183.316.274.475.088.154.177.308.263.464.087.161.168.326.25.488.082.158.164.316.241.478.08.167.154.336.23.505.072.162.147.322.216.485.073.174.14.351.208.526.063.162.129.324.189.489.066.18.125.363.186.545.055.164.112.328.165.493.057.186.107.372.159.559.047.167.097.334.141.503.048.192.09.387.134.58.038.167.08.332.114.499.042.206.075.414.111.62.027.159.06.318.084.479.034.221.059.446.086.67.018.149.041.297.056.447.026.252.042.507.059.762.008.124.021.246.028.371.019.381.029.763.029 1.148 0 .549-.027 1.092-.065 1.631l-.026.335a22.504 22.504 0 0 1-.192 1.591c-.007.043-.016.086-.022.128a21.975 21.975 0 0 1-.314 1.544l-.035.153a23.137 23.137 0 0 1-.459 1.601l-.029.084a22.251 22.251 0 0 1-1.311 3.132l-.02.038a22.53 22.53 0 0 1-1.785 2.913l-.004.006c-1 1.382-2.15 2.647-3.43 3.771l-.078.068a22.82 22.82 0 0 1-2.622 1.968c-.056.036-.111.072-.168.107a23.359 23.359 0 0 1-1.433.837c-.468.249-.948.48-1.435.697-.058.026-.114.053-.173.078-.493.215-.993.412-1.503.592-.021.007-.041.017-.063.024 4.303 10.304 10.549 17.855 18.611 22.485 6.146 3.532 13.298 5.322 21.259 5.322 21.93 0 49.824-13.553 78.683-38.187-17.985-16.413-35.876-36.538-52.653-59.487zM300.871 351.85a497.977 497.977 0 0 1-44.867 2.008c-16.571 0-32.864-.803-48.65-2.361 14.892 19.627 30.717 37.109 47.007 51.858 16.119-14.667 31.778-32.03 46.51-51.505zM313.447 350.541c-16.578 22.732-34.262 42.683-52.05 58.99 28.906 24.557 56.821 38.059 78.798 38.06h.002c8.025 0 15.234-1.805 21.43-5.365 10.482-6.024 17.881-16.851 21.988-32.182 5.303-19.789 4.75-45.305-.926-73.813-21.057 6.556-44.448 11.383-69.242 14.31z" fill="#ffffff" class="fill-000000"></path><path d="M119.5 161.417c.168.023.335.054.503.07.427.042.858.065 1.295.065 7.317 0 13.271-5.917 13.271-13.189 0-7.273-5.953-13.19-13.271-13.19-.431 0-.856.024-1.276.064-.122.012-.241.032-.362.047-.304.037-.606.08-.902.137-.126.024-.25.055-.377.083a13.323 13.323 0 0 0-1.202.327c-5.31 1.726-9.159 6.688-9.159 12.532.001 6.665 5.009 12.177 11.48 13.054zM141.858 258.833c-10.585-23.808-18.768-47.516-24.119-69.993a246.733 246.733 0 0 0-12.276 4.927c-38.89 16.88-60.309 38.846-60.309 61.851 0 23.007 21.419 44.973 60.309 61.854a249.219 249.219 0 0 0 14.498 5.738c4.955-20.634 12.328-42.344 21.897-64.377zM129.43 409.035c.169-.132.338-.265.501-.404.148-.127.291-.259.433-.392.164-.152.326-.306.481-.466.128-.133.25-.271.373-.408.155-.174.309-.349.454-.529.11-.137.212-.279.315-.42.144-.194.288-.389.42-.59.092-.141.176-.286.263-.43.128-.213.257-.424.374-.643.078-.147.146-.301.218-.451.108-.225.218-.447.313-.679.067-.161.122-.329.182-.492.083-.229.171-.455.242-.688.058-.188.1-.382.149-.574.056-.217.117-.432.162-.653.049-.241.078-.489.114-.734.025-.18.061-.356.079-.537.043-.434.067-.87.067-1.313 0-7.271-5.953-13.188-13.271-13.188-.477 0-.953.028-1.423.079-.176.019-.345.053-.518.079-.29.042-.58.084-.864.145-5.979 1.282-10.474 6.57-10.474 12.886 0 7.274 5.957 13.192 13.278 13.192.359 0 .712-.025 1.063-.054.258-.021.513-.052.765-.086.186-.025.371-.052.553-.084a15.721 15.721 0 0 0 1.273-.296 14 14 0 0 0 1.219-.414 12.31 12.31 0 0 0 1.156-.521 14.1 14.1 0 0 0 1.608-.966c.17-.121.333-.244.495-.369z" fill="#ffffff" class="fill-000000"></path></svg>